<svg width="180" height="40" viewBox="0 0 180 40" fill="none" xmlns="http://www.w3.org/2000/svg">
<path d="M56.9948 32.1285H52.9553L52.1202 34.0479H51L54.4421 26.3702H55.5148L58.9704 34.0479H57.8299L56.9948 32.1285ZM56.6078 31.251L54.9648 27.4876L53.3287 31.251H56.6078Z" fill="white"/>
<path d="M65.2575 30.1681H66.303V33.1638C65.9296 33.4791 65.4883 33.7191 64.9859 33.8904C64.4835 34.0618 63.9675 34.1441 63.4244 34.1441C62.6572 34.1441 61.9647 33.9727 61.3469 33.6368C60.7291 33.294 60.2471 32.8279 59.8941 32.2315C59.541 31.6351 59.3645 30.9633 59.3645 30.2161C59.3645 29.4689 59.541 28.7971 59.8941 28.2007C60.2471 27.6043 60.7291 27.1313 61.3469 26.7954C61.9647 26.4595 62.664 26.2881 63.438 26.2881C64.049 26.2881 64.5989 26.3909 65.0945 26.5897C65.5901 26.7885 66.011 27.0833 66.3573 27.474L65.6852 28.1527C65.0742 27.5631 64.3409 27.2615 63.4787 27.2615C62.9016 27.2615 62.3789 27.3849 61.9172 27.6386C61.4556 27.8922 61.0957 28.2418 60.8377 28.6942C60.5798 29.1467 60.444 29.654 60.444 30.2161C60.444 30.7713 60.573 31.2718 60.8377 31.7242C61.0957 32.1766 61.4556 32.5263 61.9172 32.7799C62.3789 33.0335 62.8948 33.1638 63.4651 33.1638C64.144 33.1638 64.7415 32.9993 65.2439 32.6702V30.1681H65.2575ZM62.0598 25.4106C61.7271 25.1433 61.5574 24.78 61.5438 24.3275H62.2499C62.2567 24.588 62.3585 24.8005 62.5622 24.965C62.7659 25.1296 63.0103 25.205 63.309 25.205C63.6077 25.205 63.8521 25.1227 64.0558 24.965C64.2527 24.8074 64.3613 24.5949 64.3681 24.3275H65.0741C65.0606 24.78 64.8841 25.1433 64.5582 25.4106C64.2255 25.6848 63.8114 25.8151 63.3158 25.8151C62.7998 25.8151 62.3857 25.678 62.0598 25.4106Z" fill="white"/>
<path d="M68.3734 26.3702H69.4597V34.0479H68.3734V26.3702Z" fill="white"/>
<path d="M76.8259 34.0479L75.1829 31.6898C74.9793 31.7035 74.8231 31.7103 74.7077 31.7103H72.8271V34.0479H71.7408V26.3702H74.7077C75.6921 26.3702 76.4661 26.6101 77.0296 27.0831C77.5931 27.5561 77.8782 28.2142 77.8782 29.0437C77.8782 29.6332 77.7356 30.1405 77.4437 30.5587C77.1518 30.9768 76.7376 31.2785 76.2081 31.4704L78.014 34.0479H76.8259ZM76.2488 30.3325C76.6086 30.0308 76.7919 29.6058 76.7919 29.0505C76.7919 28.4953 76.6086 28.0702 76.2488 27.7755C75.889 27.4807 75.3594 27.3299 74.6737 27.3299H72.8271V30.7849H74.6737C75.3662 30.7849 75.889 30.6341 76.2488 30.3325Z" fill="white"/>
<path d="M84.0698 27.3302H81.4628V26.3774H87.7495V27.3302H85.1425V34.0551H84.0698V27.3302Z" fill="white"/>
<path d="M94.4571 33.0951V34.0479H88.9375V26.3702H94.3009V27.323H90.0238V29.6812H93.8392V30.6135H90.0238V33.0951H94.4571Z" fill="white"/>
<path d="M100.907 34.0479L98.6255 30.8809L96.3783 34.0479H95.1292L97.9874 30.1131L95.3057 26.3702H96.5413L98.6731 29.3179L100.778 26.3702H101.959L99.2773 30.0788L102.156 34.0479H100.907V34.0479Z" fill="white"/>
<path d="M109.726 26.3702V34.0479H108.837L104.274 28.3239V34.0479H103.188V26.3702H104.077L108.64 32.0942V26.3702H109.726Z" fill="white"/>
<path d="M112.095 25.3622C111.973 25.2388 111.912 25.0812 111.912 24.9029C111.912 24.7247 111.973 24.567 112.095 24.4436C112.217 24.3203 112.374 24.2585 112.55 24.2585C112.733 24.2585 112.883 24.3203 113.005 24.4436C113.127 24.567 113.188 24.7247 113.188 24.9029C113.188 25.0812 113.127 25.2388 113.005 25.3622C112.883 25.4856 112.727 25.5473 112.55 25.5473C112.374 25.5473 112.217 25.4856 112.095 25.3622ZM112.007 26.3699H113.093V34.0477H112.007V26.3699Z" fill="white"/>
<path d="M117.852 30.6412L116.461 32.0671V34.0551H115.374V26.3774H116.461V30.6687L120.588 26.3774H121.824L118.579 29.8323L122.034 34.0551H120.765L117.852 30.6412Z" fill="white"/>
<path d="M127.731 32.1285H123.691L122.856 34.0479H121.736L125.178 26.3702H126.251L129.706 34.0479H128.566L127.731 32.1285ZM127.351 31.251L125.708 27.4876L124.065 31.251H127.351Z" fill="white"/>
<path d="M139.048 27.0828C139.612 27.5558 139.897 28.2139 139.897 29.0434C139.897 29.8729 139.612 30.531 139.048 31.004C138.485 31.477 137.711 31.7169 136.726 31.7169H134.846V34.0408H133.76V26.363H136.726C137.704 26.3699 138.485 26.6098 139.048 27.0828ZM138.267 30.3253C138.627 30.0305 138.811 29.6055 138.811 29.0503C138.811 28.495 138.627 28.07 138.267 27.7752C137.908 27.4804 137.378 27.3296 136.692 27.3296H134.846V30.7709H136.692C137.378 30.7709 137.901 30.6201 138.267 30.3253Z" fill="white"/>
<path d="M142.959 33.6289C142.341 33.2861 141.859 32.82 141.506 32.2167C141.153 31.6135 140.976 30.9485 140.976 30.2082C140.976 29.4678 141.153 28.8028 141.506 28.1996C141.859 27.6032 142.341 27.1302 142.959 26.7874C143.576 26.4447 144.269 26.2802 145.036 26.2802C145.796 26.2802 146.482 26.4515 147.1 26.7874C147.718 27.1302 148.2 27.5963 148.546 28.1927C148.892 28.7891 149.069 29.4609 149.069 30.2082C149.069 30.9554 148.892 31.6272 148.546 32.2236C148.2 32.82 147.718 33.2861 147.1 33.6289C146.482 33.9716 145.796 34.1361 145.036 34.1361C144.262 34.1361 143.57 33.9648 142.959 33.6289ZM146.536 32.7788C146.984 32.5252 147.331 32.1687 147.589 31.7231C147.847 31.2707 147.976 30.7703 147.976 30.215C147.976 29.6597 147.847 29.1593 147.589 28.7069C147.331 28.2544 146.978 27.9048 146.536 27.6512C146.095 27.3975 145.593 27.2673 145.029 27.2673C144.472 27.2673 143.963 27.3975 143.515 27.6512C143.067 27.9048 142.707 28.2613 142.449 28.7069C142.191 29.1593 142.062 29.6597 142.062 30.215C142.062 30.7703 142.191 31.2707 142.449 31.7231C142.707 32.1756 143.06 32.5252 143.515 32.7788C143.97 33.0325 144.472 33.1627 145.029 33.1627C145.593 33.1627 146.088 33.0325 146.536 32.7788Z" fill="white"/>
<path d="M155.811 34.0479L154.168 31.6898C153.964 31.7035 153.808 31.7103 153.692 31.7103H151.812V34.0479H150.725V26.3702H153.692C154.677 26.3702 155.451 26.6101 156.014 27.0831C156.578 27.5561 156.863 28.2142 156.863 29.0437C156.863 29.6332 156.72 30.1405 156.428 30.5587C156.136 30.9768 155.722 31.2785 155.193 31.4704L156.999 34.0479H155.811ZM155.233 30.3325C155.593 30.0308 155.777 29.6058 155.777 29.0505C155.777 28.4953 155.593 28.0702 155.233 27.7755C154.874 27.4807 154.344 27.3299 153.658 27.3299H151.812V30.7849H153.658C154.344 30.7849 154.867 30.6341 155.233 30.3325Z" fill="white"/>
<path d="M160.02 27.3302H157.412V26.3774H163.699V27.3302H161.092V34.0551H160.02V27.3302V27.3302Z" fill="white"/>
<path d="M169.355 32.1285H165.315L164.48 34.0479H163.36L166.802 26.3702H167.874L171.33 34.0479H170.19L169.355 32.1285ZM168.974 31.251L167.331 27.4876L165.688 31.251H168.974Z" fill="white"/>
<path d="M172.457 26.3702H173.544V33.0951H177.658V34.0479H172.457V26.3702Z" fill="white"/>
<path d="M178.914 26.3702H180V34.0479H178.914V26.3702Z" fill="white"/>
<path d="M66.4547 18.4686V9.82875L61.9321 18.4686H58.7765L54.25 9.82875V18.4686H50.9604V6.16516H55.4318L60.3523 15.4773L65.2728 6.16516H69.7245V18.4686H66.4547Z" fill="white"/>
<path d="M82.8747 16.1416H76.0829L74.9404 18.4686H71.2688L77.643 6.16516H81.3146L87.6927 18.4686H84.0211L82.8747 16.1416ZM77.2608 13.743H81.7125L79.4946 9.21219L77.2608 13.743Z" fill="white"/>
<path d="M92.5383 10.859L99.2789 6.16516H103.687L95.4851 12.0643L104.239 18.4686H99.4404L92.5422 13.3571V18.4686H89.233V6.16516H92.5422V10.859H92.5383Z" fill="white"/>
<path d="M105.688 18.4684V6.16487H108.978V18.4684H105.688ZM105.885 4.84821V2.00006H108.714V4.84821H105.885Z" fill="white"/>
<path d="M123.85 18.4686L115.628 10.0157V18.4686H112.338V6.16516H115.912L124.141 14.6539V6.16516H127.415V18.4686H123.85Z" fill="white"/>
<path d="M140.565 16.1416H133.773L132.631 18.4686H128.959L135.334 6.16516H139.005L145.383 18.4686H141.712L140.565 16.1416ZM134.951 13.743H139.403L137.185 9.21219L134.951 13.743Z" fill="white"/>
<path d="M145.919 18.4685V15.2464H149.28V18.4685H145.919Z" fill="white"/>
<path d="M161.437 16.1416H154.645L153.503 18.4686H149.831L156.205 6.16516H159.877L166.255 18.4686H162.583L161.437 16.1416ZM155.823 13.743H160.275L158.057 9.21219L155.823 13.743Z" fill="white"/>
<path d="M167.086 18.4686V15.8989L175.095 8.86214H167.327V6.16516H179.823V8.4206L171.451 15.7717H180V18.4686H167.086Z" fill="white"/>
<path fill-rule="evenodd" clip-rule="evenodd" d="M14.4912 24.6446L14.3888 24.6992C14.2689 24.7636 14.1626 24.8475 14.0718 24.949C13.5557 25.5092 13.5596 26.4441 13.8456 27.1115C14.153 27.8259 14.7309 28.2318 15.4364 28.3002C14.6671 28.2767 14.0312 27.8649 13.7045 27.1037C13.4185 26.4362 13.4146 25.5014 13.9307 24.9412C14.0235 24.8417 14.1298 24.7578 14.2477 24.6933L14.3327 24.6465H14.4912V24.6446ZM19.3506 14.9874L17.9435 17.0386L19.3506 14.9874ZM17.9435 17.0386L17.8371 17.1928L16.6059 15.3914L16.7412 15.1884L17.9435 17.0386ZM19.9093 15.2177L16.6561 21.8438L17.1355 21.9355L15.1852 21.8926L16.113 20.5186L16.2618 20.622L19.9093 15.2177ZM30.8864 18.2038L23.7287 13.0669C23.6089 12.8209 23.7094 11.9876 23.9762 11.646L27.0882 14.4585L26.9335 14.6322L30.8864 18.2038ZM16.6754 24.4299L18.1947 28.064L17.2244 27.4492L16.2231 25.1832L16.1961 25.1227L16.2231 25.0817L16.6754 24.4299ZM14.7812 22.4625L16.7238 22.4937L16.2947 22.5816L15.9757 23.2334L15.9235 23.3388L15.1736 23.7585L14.727 23.6316L14.584 23.7643L14.354 23.0363C14.3076 22.8919 14.2419 22.7123 14.3443 22.5757C14.4487 22.4391 14.6323 22.4586 14.7812 22.4625ZM15.1832 11.648C15.45 11.9895 15.5505 12.8229 15.4306 13.0708L8.27104 18.2077L12.2239 14.6361L12.0693 14.4624L15.1832 11.648ZM22.5535 15.3875L17.1973 23.2217L22.4182 15.1845L22.5535 15.3875ZM24.6662 24.6485H24.8247L24.9098 24.6953C25.0296 24.7597 25.1359 24.8436 25.2268 24.9432C25.7429 25.5033 25.739 26.4382 25.4529 27.1057C25.1263 27.8669 24.4903 28.2787 23.721 28.3021C24.4265 28.2338 25.0045 27.8278 25.3118 27.1135C25.5979 26.446 25.6018 25.5111 25.0857 24.951C24.9929 24.8514 24.8866 24.7675 24.7687 24.7012L24.6662 24.6485ZM22.9304 25.0856L22.9575 25.1266L22.9304 25.1871L21.9292 27.4531L20.9588 28.0679L22.4781 24.4338L22.9304 25.0856ZM22.4317 22.4976L24.3743 22.4664C24.5251 22.4625 24.7087 22.443 24.8112 22.5816C24.9136 22.7182 24.846 22.8977 24.8015 23.0422L24.5715 23.7702L24.4285 23.6375L23.982 23.7643L23.232 23.3447L23.1798 23.2393L22.8608 22.5874L22.4317 22.4976ZM22.5013 21.8477L20.9898 18.7659L20.002 20.2102L21.9601 23.2256L19.9498 20.2863L19.7875 20.5244L22.3892 24.3303L20.7211 28.3197L19.9305 28.8213L20.3094 28.9598L23.3286 28.4114C25.8569 28.7256 26.4677 25.3979 24.9716 24.5821L25.163 24.1293L25.0818 24.0415L25.6655 22.2459C25.7293 22.0487 25.5824 21.8497 25.3775 21.8555L24.3048 21.8887L23.2764 20.3663L23.4253 20.2649L21.6934 17.7393L21.3184 18.2878L22.8956 20.6259L23.0445 20.5244L23.9723 21.8985L22.022 21.9414L22.5013 21.8477ZM36.1807 22.7748L39.1574 19.7691L19.5787 0L0 19.7691L2.97866 22.7767L4.99471 24.8124C5.09329 24.545 5.20347 24.2835 5.32331 24.0298C5.67124 23.294 6.10422 22.6479 6.68023 22.0722C8.4798 20.2727 9.19885 19.9994 13.0744 17.1167L7.62157 21.5452C6.76141 22.2439 6.15834 23.0129 5.67897 24.0298C5.51854 24.3674 5.37936 24.7187 5.25566 25.0759L5.41222 25.234C5.98824 23.5223 6.72276 22.5328 7.74528 21.7013L16.7895 14.2555L16.1961 15.2684L17.6728 17.429L15.7322 20.2571L15.8829 20.3605L14.8546 21.8828L13.7818 21.8497C13.577 21.8438 13.43 22.0429 13.4938 22.24L14.0776 24.0356L13.9964 24.1234L14.1878 24.5762C12.6917 25.3921 13.3005 28.7217 15.8308 28.4055L18.85 28.954L19.2289 28.8154L18.4383 28.3138L16.7702 24.3245L22.9633 15.2645L22.3699 14.2516L31.4141 21.6974C32.4386 22.5289 33.1711 23.5204 33.7491 25.232L33.9056 25.0739C33.7819 24.7148 33.6408 24.3635 33.4823 24.0259C33.003 23.011 32.3999 22.24 31.5397 21.5413L26.0869 17.1128C29.9625 19.9975 30.6834 20.2688 32.4811 22.0683C33.0552 22.644 33.4901 23.2881 33.838 24.0259C33.9578 24.2815 34.068 24.5431 34.1685 24.8124L36.1807 22.7748ZM2.93806 19.7691L19.5787 2.96664L36.2194 19.7691L34.9069 21.0943L27.4767 14.0154L27.3221 14.1891L24.1578 11.3298L24.2255 10.5764L22.3602 10.596L19.5749 14.6536L16.7914 10.5979L14.9261 10.5784L14.9938 11.3318L11.8334 14.193L11.6788 14.0193L4.25053 21.0963L2.93806 19.7691Z" fill="white"/>
<path fill-rule="evenodd" clip-rule="evenodd" d="M19.5787 36.5717L6.86384 23.7332C6.46566 24.3597 6.18538 25.0448 5.95923 25.7864L19.5787 39.5384L33.1982 25.7864C32.972 25.0448 32.6918 24.3617 32.2955 23.7332L19.5787 36.5717Z" fill="#F7971C"/>
</svg>
