<?xml version="1.0" encoding="UTF-8"?> <svg xmlns="http://www.w3.org/2000/svg" viewBox="0 0 114.13 26.25"><g fill="#161f28"><path d="m27.17 14.35a4.6 4.6 0 0 0 -.83-1.1 8.12 8.12 0 0 0 -1.38-1q-.91-.53-1.44-.78c-.34-.17-.86-.4-1.55-.7-2-.92-3.09-1.89-3.11-2.9a1.41 1.41 0 0 1 .5-1.16 2.7 2.7 0 0 1 1.42-.61v-.1a6.75 6.75 0 0 0 -3.78 1.12 3.24 3.24 0 0 0 -1.4 2.72 3.08 3.08 0 0 0 .2 1.08 2.86 2.86 0 0 0 .74 1c.36.33.67.61.92.82a7.73 7.73 0 0 0 1.26.81c.59.33 1 .55 1.21.65l1.3.64c2.05 1 3.08 1.92 3.08 2.79 0 1-.79 1.69-2.37 2v.16a7.56 7.56 0 0 0 4.13-1.16 3.35 3.35 0 0 0 1.47-2.9 2.76 2.76 0 0 0 -.37-1.38z"></path><path d="m24.91 10.61a2 2 0 1 0 -2-2 2 2 0 0 0 2 2z"></path><path d="m18.36 15.34a2 2 0 1 0 1.95 1.95 1.95 1.95 0 0 0 -1.95-1.95z"></path><path d="m40.24 14.35a4.62 4.62 0 0 0 -.84-1.1 8.12 8.12 0 0 0 -1.38-1c-.61-.35-1.09-.61-1.43-.78s-.87-.4-1.56-.7c-2.03-.89-3.03-1.86-3.1-2.87a1.37 1.37 0 0 1 .49-1.16 2.73 2.73 0 0 1 1.42-.61v-.13a6.69 6.69 0 0 0 -3.74 1.12 3.23 3.23 0 0 0 -1.44 2.72 3.08 3.08 0 0 0 .2 1.08 2.9 2.9 0 0 0 .75 1c.36.33.66.61.91.82a8.76 8.76 0 0 0 1.26.81c.6.33 1 .55 1.21.65l1.3.64c2.05 1 3.08 1.92 3.08 2.79 0 1-.79 1.69-2.36 2v.16a7.58 7.58 0 0 0 4.13-1.16 3.35 3.35 0 0 0 1.47-2.9 2.76 2.76 0 0 0 -.37-1.38z"></path><path d="m38 10.61a2 2 0 1 0 -1.95-2 2 2 0 0 0 1.95 2z"></path><path d="m31.42 15.34a2 2 0 1 0 2 1.95 2 2 0 0 0 -2-1.95z"></path><path d="m92.75 18.63a3.79 3.79 0 0 1 -3.08-1.57 6.92 6.92 0 0 1 -1.22-4.35 16.62 16.62 0 0 1 .55-5.05 2 2 0 0 1 1.75-1.53v-.13a6.71 6.71 0 0 0 -5.75 3.1 6.5 6.5 0 0 0 -1.06 3.71 6.45 6.45 0 0 0 2.15 5.07 7.4 7.4 0 0 0 4.91 1.89 9 9 0 0 0 3.08-.58 5.68 5.68 0 0 0 2.55-1.81v-.16a6.21 6.21 0 0 1 -3.88 1.41z"></path><path d="m94.13 10.61a2 2 0 1 0 -1.95-2 2 2 0 0 0 1.95 2z"></path><path d="m78 17.29a2 2 0 1 1 2 2 1.95 1.95 0 0 1 -2-2z"></path><path d="m73.59 6.23v.16a2.6 2.6 0 0 1 2 .77 2.92 2.92 0 0 1 .7 2 10 10 0 0 1 -.85 3.59l-.23.45c-.25.46-.68 1.26-.92 1.69l-3.29-6.89a1.17 1.17 0 0 1 -.09-1.13 1 1 0 0 1 .94-.44v-.2h-7.47v.16a1.52 1.52 0 0 1 1.46.93l5.55 11a2.32 2.32 0 0 1 -.21 2.68l-.24.35a2.93 2.93 0 0 1 -.16.26l.18.15.27-.46.93-1.76.68-1.28 1.59-3 1.46-2.7 2.58-4.86a2.94 2.94 0 0 1 .74-1 1.63 1.63 0 0 1 1-.25v-.22z"></path><path d="m67.38 22.34a2 2 0 1 0 2 1.95 2 2 0 0 0 -2-1.95z"></path><path d="m114 17.93c-.41.78-.85 1.16-1.23 1.16s-.77-.31-.77-1.09v-6.21-2c0-2.77-1.78-4-4-4a4.91 4.91 0 0 0 -4.53 2.88v-7.67a.82.82 0 0 1 .11-.42 1 1 0 0 1 .94-.44v-.14h-6.92v.16c.67 0 1.46.46 1.46.93v16.91c0 .9-.66 1.35-2 1.35v.16h8.36v-.16c-1.32 0-2-.45-2-1.35v-7.39c0-1.86 1.24-3.21 2.51-3.21 1 0 1.71.89 1.85 2.38v7.33c0 2.19.93 2.91 3 2.91a3.22 3.22 0 0 0 3.35-2.09z"></path><path d="m45.37 10.61a2 2 0 1 0 -1.95-2 2 2 0 0 0 1.95 2z"></path><path d="m56.84 17.83c-.43.81-.89 1.22-1.29 1.22s-.76-.33-.76-1.11v-6.55c0-3.53-1.79-5.22-6.25-5.39v.17c1.32.18 1.83 1.24 1.83 2.56v4h-2.75a6.35 6.35 0 0 0 -3.69 1 3.14 3.14 0 0 0 -1.41 2.64 3.11 3.11 0 0 0 1 2.48 3.93 3.93 0 0 0 2.75.92 5.43 5.43 0 0 0 4.14-2.07c.2 1.74 1.17 2.34 3.09 2.34a3.35 3.35 0 0 0 3.5-2.21zm-8.29.54c-1.12 0-1.67-.86-1.67-2.57a3 3 0 0 1 .73-2.12 2.7 2.7 0 0 1 2.08-.78h.68v4.1a4.68 4.68 0 0 0 0 .55 2.89 2.89 0 0 1 -1.82.82z"></path><path d="m2.85 10.61a2 2 0 1 0 -1.95-2 2 2 0 0 0 1.95 2z"></path><path d="m14.32 17.83c-.43.81-.89 1.22-1.3 1.22s-.75-.33-.75-1.11v-6.55c0-3.53-1.78-5.22-6.27-5.39v.17c1.32.18 1.83 1.24 1.83 2.56v4h-2.73a6.35 6.35 0 0 0 -3.69 1 3.14 3.14 0 0 0 -1.41 2.62 3 3 0 0 0 1 2.48 3.9 3.9 0 0 0 2.74.92 5.43 5.43 0 0 0 4.15-2.07c.19 1.74 1.17 2.32 3.11 2.32a3.36 3.36 0 0 0 3.5-2.19zm-8.32.54c-1.12 0-1.68-.86-1.68-2.57a3 3 0 0 1 .73-2.12 2.74 2.74 0 0 1 2.09-.78h.68v4.1.55a2.87 2.87 0 0 1 -1.82.82z"></path><path d="m63 1v17c0 .76.24 1.09.72 1.09s.84-.39 1.27-1.19h.16a3.31 3.31 0 0 1 -3.44 2.15c-2.12 0-3.08-.75-3.08-3v-16c0-.47-.78-.93-1.46-.93v-.12h6.89v.16a1 1 0 0 0 -.94.44.82.82 0 0 0 -.12.4"></path></g></svg> 