<svg xmlns="http://www.w3.org/2000/svg" xmlns:xlink="http://www.w3.org/1999/xlink" version="1.1" width="595.32pt" height="841.92007pt" viewBox="0 0 595.32 841.92007">
<defs>
<clipPath id="clip_0">
<path transform="matrix(.75,0,0,.75,145.08,419.40003)" d="M-193.44-551.68H389.92V.16H-193.44Z" fill-rule="evenodd"/>
</clipPath>
</defs>
<g clip-path="url(#clip_0)">
<path transform="matrix(.75,0,0,.75,145.08,419.40003)" d="M0 0C-59.84-117.76-157.28-252.48-147.68-383.2-123.84-508.8 42.08-517.28 132.48-452.8 193.44-417.12 316.48-315.2 389.76-364 343.2-297.92 282.72-336.16 199.36-368.96 12.48-442.08-209.44-551.68 0 0Z" fill="#00afef" fill-rule="evenodd"/>
</g>
<path transform="matrix(.75,0,0,.75,217.56,211.32)" d="M0 0 21.76-41.12 202.08-38.24 179.52-2.4C158.56 0 142.4 17.76 142.08 39.04 141.76 62.08 159.52 80.96 182.24 82.4 192.96 96.64 197.12 112.48 195.68 128.16 173.12 145.92 146.08 159.68 123.68 169.92 121.76 170.88 120.32 172.32 119.52 174.4L103.2 219.04V219.2C75.52 228.32 42.72 232.64 6.24 229.76-21.28 229.28-43.36 206.56-42.88 179.04-42.4 151.36-19.68 129.44 8 129.76 35.52 130.24 57.6 152.96 57.12 180.64 56.96 187.52 55.52 193.92 52.96 199.84L53.76 199.52C128.16 182.72 124.32 88.96 43.2 67.68L102.08 1.76 0 0Z" fill="#3e4095" fill-rule="evenodd"/>
<path transform="matrix(.75,0,0,.75,312.84,344.16)" d="M0 0-16.32 44.64 149.44 47.36 170.56 5.76 58.24 4C84.32-.48 107.52-8.64 127.84-20.32 163.36-40.96 196.32-75.2 194.24-119.04 191.2-182.72 102.24-175.04 56.48-171.84 38.24-171.36 23.36-156.48 23.04-137.92 22.72-118.72 37.92-103.04 57.12-102.72 76.16-102.4 91.84-117.6 92.16-136.8 92.32-138.88 92.16-140.96 91.68-143.04 112.64-146.24 124.48-132.64 120.64-111.68 110.24-56.16 47.2-21.6 0 0Z" fill="#3e4095" fill-rule="evenodd"/>
<path transform="matrix(.75,0,0,.75,184.08,473.40003)" d="M0 0C-.16 2.4-.96 4.48-2.72 6.08-4.32 7.68-6.4 8.48-8.8 8.48-11.2 8.48-13.28 7.52-14.88 5.92-16.48 4.16-17.28 2.08-17.28-.32L-15.84-91.68C-15.68-94.08-14.88-96.16-13.12-97.76-11.52-99.36-9.44-100.16-7.04-100.16-4.64-100.16-2.56-99.2-.96-97.6 .64-95.84 1.44-93.76 1.44-91.36L0 0Z" fill="#3e4095"/>
<path transform="matrix(.75,0,0,.75,289.68,433.68)" d="M0 0C0-2.24-.16-4.48-.64-7.2-1.12-9.76-2.08-12-3.68-14.24-5.12-16.48-7.04-18.24-9.76-19.84-12.32-21.28-15.68-22.08-19.68-22.24L-84.48-23.36C-88.64-23.36-92-22.72-94.56-21.28-97.12-19.68-99.2-17.92-100.8-15.84-102.24-13.76-103.36-11.36-103.84-8.8-104.48-6.24-104.8-3.84-104.8-1.76L-105.28 28.64C-105.44 31.04-106.24 33.12-108 34.72-109.6 36.48-111.68 37.28-114.08 37.12-116.48 37.12-118.56 36.32-120.16 34.56-121.76 32.8-122.56 30.88-122.56 28.48L-122.08-2.08C-121.92-6.56-121.12-11.2-119.52-15.68-118.08-20.32-115.68-24.48-112.8-28.16-109.92-31.84-106.4-34.88-102.24-37.28-98.24-39.52-93.6-40.64-88.48-40.64L-13.28-39.36C-8.48-39.04-4.16-37.6-.32-35.04 3.52-32.64 6.72-29.44 9.28-25.76 12-21.92 13.92-17.76 15.36-13.28 16.64-8.64 17.28-4.16 17.28 .32L16.64 30.72C16.64 33.12 15.84 35.2 14.08 36.8 12.48 38.4 10.4 39.2 8 39.2 5.6 39.2 3.52 38.24 1.92 36.64 .32 34.88-.48 32.8-.48 30.4L0 0Z" fill="#3e4095"/>
<path transform="matrix(.75,0,0,.75,316.08003,434.03999)" d="M0 0C0-4.48 .8-8.96 2.4-13.6 4-18.24 6.24-22.4 9.12-26.08 12.16-29.76 15.52-32.8 19.68-35.04 23.84-37.44 28.48-38.56 33.6-38.4L138.08-36.8C140.48-36.64 142.4-35.84 144.16-34.08 145.76-32.48 146.56-30.4 146.56-28 146.4-25.6 145.6-23.52 143.84-21.92 142.24-20.32 140.16-19.52 137.76-19.52L36.96-21.12C32.8-21.28 29.44-20.64 26.88-19.2 24.32-17.6 22.24-15.84 20.64-13.76 19.2-11.68 18.08-9.28 17.6-6.72 16.96-4.16 16.64-1.76 16.64 .32 16.64 2.56 16.8 4.8 17.28 7.36 17.76 10.08 18.72 12.32 20.16 14.56 21.76 16.8 23.68 18.56 26.24 20.16 28.8 21.6 32.16 22.4 36.32 22.56L137.12 24.16C139.36 24.16 141.44 25.12 143.04 26.72 144.8 28.48 145.6 30.56 145.44 32.96 145.44 35.36 144.64 37.28 142.88 39.04 141.12 40.64 139.2 41.44 136.8 41.44L30.56 39.68C25.6 39.52 21.28 38.24 17.44 35.84 13.6 33.44 10.4 30.24 7.84 26.4 5.28 22.72 3.2 18.4 1.92 13.76 .48 9.12-.16 4.48 0 0Z" fill="#3e4095"/>
<path transform="matrix(.75,0,0,.75,451.19999,477.84)" d="M0 0C0 2.24-.8 4.32-2.56 5.92-4.32 7.68-6.24 8.48-8.64 8.32-11.04 8.32-13.12 7.52-14.72 5.76-16.32 4.16-17.12 2.08-17.12-.32L-15.68-91.68C-15.68-94.08-14.72-96.16-12.96-97.76-11.36-99.52-9.28-100.32-6.88-100.16-4.48-100.16-2.56-99.36-.8-97.6 .8-95.84 1.6-93.92 1.6-91.52L0 0Z" fill="#3e4095"/>
<path transform="matrix(.75,0,0,.75,0,0)" d="M255.52 623.68 574.56 628.96 574.24 645.28 255.36 640 255.52 623.68Z" fill="#3e4095" fill-rule="evenodd"/>
<path transform="matrix(.75,0,0,.75,179.16,379.08003)" d="M0 0C4.64 0 8.48 4 8.48 8.64 8.32 13.44 4.48 17.28-.32 17.12-5.12 17.12-8.8 13.12-8.8 8.48-8.64 3.68-4.8-.16 0 0Z" fill="#3e4095" fill-rule="evenodd"/>
<path transform="matrix(.75,0,0,.75,446.40003,383.40003)" d="M0 0C4.64 .16 8.48 4 8.32 8.8 8.32 13.6 4.32 17.28-.32 17.28-5.12 17.12-8.96 13.28-8.8 8.48-8.8 3.84-4.8 0 0 0Z" fill="#3e4095" fill-rule="evenodd"/>
<path transform="matrix(.75,0,0,.75,180.6,516.36)" d="M0 0C116 20.32 236.48 7.2 361.92-41.44 347.2-29.28 343.68-15.68 353.92-.64 288.16 21.76 60.64 49.6 0 0Z" fill="#00afef" fill-rule="evenodd"/>
<path transform="matrix(.75,0,0,.75,198.36002,558.96)" d="M0 0C100.16 20.16 204.32 6.72 312.64-42.08 300-29.92 296.8-16.48 305.6-1.28 248.8 21.12 52.32 49.44 0 0Z" fill="#3e4095" fill-rule="evenodd"/>
<path transform="matrix(.75,0,0,.75,210.72,601.56)" d="M0 0C88.96 19.84 181.44 6.4 277.92-42.72 266.56-30.56 263.84-16.96 271.68-1.92 221.12 20.64 46.4 49.28 0 0Z" fill="#00afef" fill-rule="evenodd"/>
<path transform="matrix(.75,0,0,.75,222.95999,644.04)" d="M0 0C77.92 19.84 158.88 6.08 243.36-43.2 233.44-31.04 230.88-17.44 237.76-2.4 193.44 20.32 40.48 49.28 0 0Z" fill="#3e4095" fill-rule="evenodd"/>
<path transform="matrix(.75,0,0,.75,235.32,686.64)" d="M0 0C66.56 19.52 136.16 5.6 208.64-43.84 200.16-31.52 197.92-18.08 203.68-3.04 165.76 19.84 34.56 49.12 0 0Z" fill="#00afef" fill-rule="evenodd"/>
<path transform="matrix(.75,0,0,.75,247.56,729.24)" d="M0 0C55.52 19.36 113.44 5.28 174.08-44.48 166.88-32.16 165.12-18.72 169.92-3.68 138.08 19.2 28.8 48.96 0 0Z" fill="#3e4095" fill-rule="evenodd"/>
<path transform="matrix(.75,0,0,.75,259.91999,771.72)" d="M0 0C44.32 19.2 90.72 4.96 139.36-44.96 133.6-32.64 132-19.04 135.84-4 110.4 18.88 22.72 48.96 0 0Z" fill="#00afef" fill-rule="evenodd"/>
<path transform="matrix(.75,0,0,.75,466.80003,382.32)" d="M0 0C51.2-104.32 135.2-224 125.12-338.88 102.56-448.96-43.52-454.24-122.08-396.48-140-385.6-163.68-368.32-189.92-351.52-177.76-344.96-165.28-338.56-152.64-333.12 3.68-397.76 167.52-460.8 0 0ZM-345.28-313.92C-345.92-314.4-346.56-314.72-347.2-315.2-346.72-314.56-346.24-313.92-345.76-313.28L-345.28-313.92Z" fill="#3e4095" fill-rule="evenodd"/>
</svg>
