<svg width="140" height="62" viewBox="0 0 140 62" fill="none" xmlns="http://www.w3.org/2000/svg">
<g clip-path="url(#clip0)">
<path d="M105.773 25.1982C104.719 25.4356 103.702 25.6966 102.705 25.9751L104.62 29.8499C92.6131 31.5065 78.0808 39.2181 71.3083 48.2429C75.7454 44.2764 88.5951 34.5538 103.254 33.1013C103.512 33.076 103.774 33.0602 104.034 33.038C105.869 32.8925 107.743 32.864 109.656 32.9921L105.773 25.1982Z" fill="#39B54A"/>
<path d="M99.6535 12.9359L94.8821 3.53928C94.2857 3.69908 92.666 4.23386 90.1783 5.77334L91.357 7.99C91.9973 7.67514 92.6597 7.38085 93.3424 7.1103L101.083 22.7994C89.924 25.9685 76.2315 34.8193 71.1447 48.393C71.1447 48.393 71.1462 48.287 71.1447 48.393C71.3063 48.1003 71.5041 47.7601 71.7317 47.3836C71.7725 47.3171 71.8195 47.2443 71.8604 47.1747C74.8754 42.2731 83.2096 31.3828 100.148 25.9495C100.383 25.872 100.625 25.8024 100.862 25.7296C102.323 25.2818 103.839 24.8673 105.426 24.505C105.459 24.4987 105.489 24.4907 105.519 24.4844L99.6535 12.9359Z" fill="#FF0000"/>
<path d="M84.3978 2.22932L92.7445 18.6035C92.7445 18.6035 70.4918 30.0855 71.1447 48.3931C71.76 39.8967 79.956 26.7043 96.8206 19.8423L96.5993 19.4246L94.449 15.3853L94.088 14.7049L89.549 6.17057L89.1927 5.5013L86.2671 0L84.3978 2.22932Z" fill="#29ABE2"/>
<path d="M34.2611 25.1982C35.3158 25.4356 36.3328 25.6966 37.3295 25.9751L35.4147 29.8499C47.4215 31.5065 61.9537 39.2181 68.7262 48.2429C64.2892 44.2764 51.4395 34.5538 36.7801 33.1013C36.5227 33.076 36.2606 33.0602 36.0001 33.038C34.1653 32.8925 32.2913 32.864 30.3781 32.9921L34.2611 25.1982Z" fill="#39B54A"/>
<path d="M40.3808 12.9359L45.1522 3.53928C45.7486 3.69908 47.3683 4.23386 49.856 5.77334L48.6773 7.99C48.037 7.67514 47.3746 7.38085 46.6919 7.1103L38.951 22.7994C50.1103 25.9685 63.8028 34.8193 68.8897 48.393C68.8897 48.393 68.8881 48.287 68.8897 48.393C68.728 48.1003 68.5302 47.7601 68.3027 47.3836C68.2618 47.3171 68.2148 47.2443 68.174 47.1747C65.1589 42.2731 56.8247 31.3828 39.8864 25.9495C39.651 25.872 39.4093 25.8024 39.1723 25.7296C37.7111 25.2818 36.1949 24.8673 34.6081 24.505C34.5751 24.4987 34.5453 24.4907 34.5155 24.4844L40.3808 12.9359Z" fill="#FF0000"/>
<path d="M55.6364 2.22932L47.2897 18.6035C47.2897 18.6035 69.5424 30.0855 68.8895 48.3931C68.2742 39.8967 60.0782 26.7043 43.2136 19.8423L43.4349 19.4246L45.5852 15.3853L45.9462 14.7049L50.4852 6.17057L50.8415 5.5013L53.7671 0L55.6364 2.22932Z" fill="#29ABE2"/>
<path d="M69.9428 7.69719C70.8061 7.69719 71.506 6.90806 71.506 5.93463C71.506 4.96119 70.8061 4.17206 69.9428 4.17206C69.0794 4.17206 68.3795 4.96119 68.3795 5.93463C68.3795 6.90806 69.0794 7.69719 69.9428 7.69719Z" fill="white"/>
<path d="M69.9434 9.5008C69.9434 9.5008 66.8169 4.89818 61.9231 4.81591C61.9231 4.81591 67.1873 6.43292 69.9434 13.3566C72.6994 6.43292 77.9636 4.81591 77.9636 4.81591C73.0699 4.89818 69.9434 9.5008 69.9434 9.5008Z" fill="white"/>
<path d="M79.8746 11.3662C79.2813 11.9643 78.371 12.0149 77.8405 11.4801C77.31 10.9453 77.3618 10.0277 77.9535 9.42959C78.5467 8.83152 79.4571 8.78089 79.9876 9.31567C80.5196 9.84887 80.4678 10.7681 79.8746 11.3662Z" fill="white"/>
<path d="M76.742 12.5893C76.742 12.5893 76.2115 8.65916 78.908 4.77961C78.908 4.77961 74.4019 7.48517 74.3925 14.9595C80.3064 12.4121 84.5269 14.6794 84.5269 14.6794C81.4679 11.697 76.742 12.5893 76.742 12.5893Z" fill="white"/>
<path d="M62.2997 11.4805C62.8299 10.946 62.7788 10.0279 62.1854 9.42974C61.5921 8.83163 60.6813 8.78004 60.1511 9.31451C59.621 9.84898 59.6721 10.7671 60.2655 11.3652C60.8588 11.9633 61.7696 12.0149 62.2997 11.4805Z" fill="white"/>
<path d="M63.293 12.5893C63.293 12.5893 63.8235 8.65916 61.1271 4.77961C61.1271 4.77961 65.6332 7.48517 65.6426 14.9595C59.7286 12.4121 55.5082 14.6794 55.5082 14.6794C58.5672 11.697 63.293 12.5893 63.293 12.5893Z" fill="white"/>
<path d="M69.9428 25.959C70.8061 25.959 71.506 25.1699 71.506 24.1965C71.506 23.223 70.8061 22.4339 69.9428 22.4339C69.0794 22.4339 68.3795 23.223 68.3795 24.1965C68.3795 25.1699 69.0794 25.959 69.9428 25.959Z" fill="white"/>
<path d="M69.9434 20.6299C69.9434 20.6299 66.8169 25.2326 61.9231 25.3148C61.9231 25.3148 67.1873 23.6978 69.9434 16.7741C72.6994 23.6978 77.9636 25.3148 77.9636 25.3148C73.0699 25.2326 69.9434 20.6299 69.9434 20.6299Z" fill="white"/>
<path d="M79.8746 18.7803C79.2813 18.1823 78.371 18.1316 77.8405 18.6664C77.31 19.2012 77.3618 20.1189 77.9535 20.717C78.5467 21.315 79.4571 21.3657 79.9876 20.8309C80.5196 20.2961 80.4678 19.3784 79.8746 18.7803Z" fill="white"/>
<path d="M76.742 17.5573C76.742 17.5573 76.2115 21.4875 78.908 25.367C78.908 25.367 74.4019 22.6615 74.3925 15.1872C80.3064 17.7345 84.5269 15.4672 84.5269 15.4672C81.4679 18.4496 76.742 17.5573 76.742 17.5573Z" fill="white"/>
<path d="M62.1862 20.7179C62.7795 20.1198 62.8307 19.2017 62.3005 18.6672C61.7703 18.1327 60.8595 18.1843 60.2662 18.7824C59.6729 19.3806 59.6217 20.2987 60.1519 20.8332C60.6821 21.3676 61.5928 21.316 62.1862 20.7179Z" fill="white"/>
<path d="M63.293 17.5573C63.293 17.5573 63.8235 21.4875 61.1271 25.367C61.1271 25.367 65.6332 22.6615 65.6426 15.1872C59.7286 17.7345 55.5082 15.4672 55.5082 15.4672C58.5672 18.4496 63.293 17.5573 63.293 17.5573Z" fill="white"/>
<path d="M5.37248 59.1395L7.48663 53.961H10.6586V54.1746H10.4059C10.1768 54.1746 9.99159 54.2157 9.85504 54.2964C9.7593 54.3502 9.6824 54.442 9.62589 54.5686C9.58352 54.6619 9.56311 54.9024 9.56311 55.2932V60.4717C9.56311 60.8736 9.58352 61.1236 9.62589 61.2249C9.66827 61.3245 9.75459 61.4132 9.88486 61.4891C10.0151 61.565 10.1894 61.6014 10.4075 61.6014H10.6602V61.815H6.59043V61.6014H6.84313C7.07228 61.6014 7.25748 61.5603 7.39403 61.4796C7.48977 61.4258 7.56668 61.3325 7.62318 61.2011C7.66556 61.1078 7.68596 60.8657 7.68596 60.4717V54.6493L4.69759 61.815H4.55947L1.52872 54.7015V60.2328C1.52872 60.6189 1.53813 60.8562 1.55697 60.9448C1.60719 61.1378 1.71549 61.2945 1.88186 61.4163C2.04823 61.5381 2.31034 61.5983 2.66662 61.5983V61.8119H0V61.5983H0.0800457C0.252693 61.6014 0.412785 61.5745 0.563459 61.5144C0.712564 61.4543 0.82557 61.3752 0.902477 61.2739C0.979383 61.1742 1.03903 61.0334 1.07983 60.8515C1.08768 60.8088 1.09082 60.6126 1.09082 60.2613V55.2916C1.09082 54.8945 1.07042 54.6461 1.02804 54.5464C0.985661 54.4483 0.899337 54.3613 0.769067 54.2854C0.638796 54.2094 0.464579 54.173 0.246415 54.173H0V53.9594H3.183L5.37248 59.1395Z" fill="white"/>
<path d="M15.4177 53.8501C16.6592 53.8042 17.6669 54.1682 18.4438 54.945C19.2191 55.7219 19.6068 56.6918 19.6068 57.8594C19.6068 58.8562 19.318 59.7327 18.7389 60.489C17.9729 61.4937 16.89 61.9953 15.4915 61.9953C14.0899 61.9953 13.0054 61.5159 12.2395 60.5586C11.6336 59.8024 11.3323 58.9037 11.3323 57.8657C11.3323 56.6997 11.7262 55.7266 12.5126 54.9498C13.3005 54.1697 14.2689 53.8042 15.4177 53.8501ZM15.4868 54.2204C14.7742 54.2204 14.2328 54.5874 13.8608 55.3216C13.5579 55.9244 13.4072 56.7899 13.4072 57.9164C13.4072 59.2565 13.641 60.247 14.1088 60.8877C14.4337 61.3355 14.8904 61.5602 15.4758 61.5602C15.8698 61.5602 16.1994 61.4637 16.4646 61.2706C16.8021 61.0238 17.0642 60.6283 17.2525 60.0856C17.4409 59.5429 17.5335 58.8356 17.5335 57.9623C17.5335 56.9228 17.4377 56.1459 17.2462 55.6301C17.0548 55.1143 16.8099 54.7504 16.5133 54.5384C16.2151 54.328 15.8729 54.2204 15.4868 54.2204Z" fill="white"/>
<path d="M20.1812 61.8147V61.6011H20.4401C20.6661 61.6011 20.8388 61.5647 20.9596 61.4935C21.0805 61.4223 21.17 61.3242 21.2265 61.2008C21.261 61.1201 21.2783 60.8764 21.2783 60.4714V55.3039C21.2783 54.9021 21.2578 54.6521 21.2155 54.5508C21.1731 54.4511 21.0883 54.3625 20.9596 54.2866C20.8309 54.2106 20.6583 54.1742 20.4401 54.1742H20.1812V53.9606H23.6686C24.5994 53.9606 25.348 54.0888 25.9162 54.3435C26.6099 54.6568 27.1357 55.1299 27.4936 55.7628C27.8514 56.3957 28.0303 57.1124 28.0303 57.9114C28.0303 58.4636 27.9425 58.9731 27.7667 59.4382C27.5909 59.9034 27.3617 60.2879 27.0824 60.5916C26.803 60.8954 26.4797 61.1375 26.114 61.321C25.7483 61.5046 25.3009 61.647 24.772 61.7467C24.5382 61.7925 24.1709 61.8163 23.6686 61.8163H20.1812V61.8147ZM23.1523 54.4068V60.5347C23.1523 60.859 23.168 61.0584 23.1978 61.1312C23.2276 61.204 23.2794 61.2609 23.3532 61.2989C23.4567 61.3574 23.6059 61.3859 23.802 61.3859C24.4424 61.3859 24.9305 61.166 25.268 60.7261C25.7279 60.1312 25.957 59.2088 25.957 57.9573C25.957 56.9494 25.8 56.1441 25.4861 55.5413C25.2366 55.0698 24.918 54.7502 24.5272 54.5793C24.2494 54.4606 23.7911 54.4021 23.1523 54.4068Z" fill="white"/>
<path d="M31.7313 54.4116V57.6093H31.8866C32.381 57.6093 32.7389 57.4526 32.9618 57.1409C33.1846 56.8277 33.3259 56.3672 33.3871 55.7565H33.6053V59.8686H33.3871C33.3416 59.4209 33.2443 59.0538 33.0967 58.7674C32.9492 58.481 32.7781 58.2896 32.5819 58.1915C32.3858 58.0934 32.1032 58.0444 31.7313 58.0444V60.2579C31.7313 60.6898 31.7501 60.9556 31.7862 61.0521C31.8223 61.1486 31.8914 61.2277 31.9902 61.2894C32.0891 61.3512 32.2508 61.3828 32.4736 61.3828H32.9398C33.6681 61.3828 34.2503 61.2135 34.6898 60.8733C35.1277 60.5332 35.4432 60.0158 35.6347 59.3212H35.8466L35.4966 61.8179H28.7617V61.6043H29.0207C29.2467 61.6043 29.4288 61.5632 29.5669 61.4825C29.6658 61.4287 29.7427 61.3353 29.796 61.204C29.8384 61.1107 29.8588 60.8686 29.8588 60.4746V55.3072C29.8588 54.9512 29.8494 54.7344 29.8306 54.6521C29.7929 54.5176 29.7207 54.4132 29.6187 54.3389C29.4727 54.2313 29.2734 54.1759 29.0207 54.1759H28.7617V53.9623H35.2831V56.285H35.0649C34.9535 55.717 34.7981 55.3103 34.5972 55.0635C34.3963 54.8167 34.1122 54.6347 33.7434 54.5192C33.5284 54.4496 33.1266 54.4148 32.5364 54.4148H31.7313V54.4116Z" fill="white"/>
<path d="M43.8036 59.0569L43.5101 61.8147H36.5917V61.6011H36.8506C37.0767 61.6011 37.2587 61.56 37.3968 61.4793C37.4957 61.4255 37.5726 61.3321 37.626 61.2008C37.6684 61.1074 37.6888 60.8654 37.6888 60.4714V55.3039C37.6888 54.9021 37.6684 54.6521 37.626 54.5508C37.5836 54.4511 37.4989 54.3625 37.3702 54.2866C37.2415 54.2106 37.0688 54.1742 36.8506 54.1742H36.5917V53.9606H40.7462V54.1742H40.4072C40.1812 54.1742 39.9991 54.2154 39.861 54.2961C39.7621 54.3499 39.6836 54.4432 39.6256 54.5745C39.5832 54.6679 39.5628 54.91 39.5628 55.3039V60.3084C39.5628 60.7103 39.5863 60.9666 39.6318 61.0758C39.6774 61.185 39.7684 61.2672 39.9018 61.3226C39.9975 61.3574 40.2298 61.3748 40.5971 61.3748H41.2469C41.6612 61.3748 42.005 61.3021 42.2812 61.1549C42.5574 61.0078 42.796 60.7768 42.9969 60.4603C43.1978 60.1439 43.3893 59.6771 43.5682 59.0585H43.8036V59.0569Z" fill="white"/>
<path d="M46.6699 61.8147V61.6011H46.9289C47.1549 61.6011 47.3276 61.5647 47.4484 61.4935C47.5693 61.4223 47.6587 61.3242 47.7152 61.2008C47.7498 61.1201 47.767 60.8764 47.767 60.4714V55.3039C47.767 54.9021 47.7466 54.6521 47.7042 54.5508C47.6619 54.4495 47.5771 54.3625 47.4484 54.2866C47.3197 54.2106 47.1471 54.1742 46.9289 54.1742H46.6699V53.9606H50.1574C51.0881 53.9606 51.8368 54.0888 52.405 54.3435C53.0987 54.6568 53.6245 55.1299 53.9823 55.7628C54.3402 56.3957 54.5191 57.1124 54.5191 57.9114C54.5191 58.4636 54.4312 58.9731 54.2554 59.4382C54.0796 59.9034 53.8505 60.2879 53.5711 60.5916C53.2917 60.8954 52.9684 61.1375 52.6027 61.321C52.237 61.5046 51.7897 61.647 51.2608 61.7467C51.0269 61.7925 50.6597 61.8163 50.1574 61.8163H46.6699V61.8147ZM49.641 54.4068V60.5347C49.641 60.859 49.6567 61.0584 49.6865 61.1312C49.7179 61.204 49.7682 61.2609 49.8419 61.2989C49.9455 61.3574 50.0946 61.3859 50.2908 61.3859C50.9312 61.3859 51.4193 61.166 51.7568 60.7261C52.2166 60.1312 52.4458 59.2088 52.4458 57.9573C52.4458 56.9494 52.2888 56.1441 51.9749 55.5413C51.7254 55.0698 51.4068 54.7502 51.0159 54.5793C50.7397 54.4606 50.2814 54.4021 49.641 54.4068Z" fill="white"/>
<path d="M63.2882 57.8765C63.2882 59.0821 62.9177 60.0694 62.1785 60.8399C61.4393 61.6105 60.4756 61.9949 59.2874 61.9949C58.0883 61.9949 57.1482 61.6152 56.4654 60.8542C55.8031 60.1121 55.4719 59.1169 55.4719 57.8654C55.4719 57.78 55.4782 57.6676 55.4892 57.53H61.2352C61.2085 56.6265 61.0453 55.8987 60.7471 55.3466C60.3641 54.6251 59.7724 54.2627 58.972 54.2627C58.363 54.2627 57.8482 54.4494 57.4291 54.8244C57.0101 55.1994 56.7417 55.6931 56.6271 56.3069H56.4199V53.7818H56.6271C56.726 54.114 56.8955 54.2802 57.1325 54.2802C57.2439 54.2802 57.5358 54.1979 58.0083 54.0317C58.4807 53.8656 58.95 53.7833 59.413 53.7833C60.5399 53.7833 61.4659 54.1757 62.1942 54.9589C62.924 55.7405 63.2882 56.7136 63.2882 57.8765ZM61.2368 58.0379H57.5484C57.5484 59.1074 57.6143 59.8637 57.7446 60.3083C57.9942 61.1421 58.5027 61.5598 59.2733 61.5598C60.5823 61.5598 61.2368 60.3859 61.2368 58.0379Z" fill="white"/>
<path d="M66.8334 58.2358V60.4366C66.8334 60.8622 66.8601 61.1296 66.9103 61.2388C66.9621 61.3495 67.0531 61.4365 67.1834 61.503C67.3137 61.5694 67.5569 61.6011 67.9132 61.6011V61.8147H63.9266V61.6011C64.2861 61.6011 64.5309 61.5679 64.6596 61.4998C64.7883 61.4318 64.8778 61.3448 64.9296 61.2356C64.9814 61.128 65.0065 60.8606 65.0065 60.4366V55.3387C65.0065 54.9147 64.9798 54.6457 64.9296 54.5366C64.8778 54.4258 64.7867 54.3388 64.6565 54.2723C64.5262 54.2075 64.2829 54.1742 63.9266 54.1742V53.9606H67.546C68.4877 53.9606 69.1783 54.0271 69.6146 54.1584C70.0509 54.2897 70.4072 54.5318 70.6834 54.8847C70.9597 55.2375 71.0978 55.652 71.0978 56.1267C71.0978 56.7058 70.8906 57.1852 70.4778 57.5633C70.2141 57.8022 69.8437 57.9826 69.3682 58.1013L71.2422 60.7594C71.487 61.1027 71.6612 61.3179 71.7648 61.4017C71.9218 61.522 72.1039 61.5868 72.311 61.5995V61.8131H69.8579L67.3466 58.2326H66.8334V58.2358ZM66.8334 54.3831V57.8244H67.1614C67.6935 57.8244 68.0922 57.7753 68.3574 57.6772C68.6211 57.5791 68.8298 57.4004 68.9805 57.144C69.1312 56.8877 69.2081 56.5523 69.2081 56.1393C69.2081 55.5413 69.0684 55.0983 68.7922 54.8135C68.5144 54.5271 68.067 54.3847 67.4502 54.3847H66.8334V54.3831Z" fill="white"/>
<path d="M77.7339 53.7805L77.7967 56.399H77.5613C77.4499 55.7424 77.1768 55.214 76.742 54.8153C76.3072 54.415 75.8364 54.2156 75.331 54.2156C74.9402 54.2156 74.631 54.3216 74.4034 54.532C74.1758 54.7425 74.0613 54.9846 74.0613 55.2583C74.0613 55.4323 74.1021 55.5858 74.1821 55.7219C74.2936 55.9038 74.4709 56.0826 74.7173 56.2598C74.8978 56.388 75.3122 56.6126 75.9635 56.937C76.8754 57.3895 77.4907 57.8151 77.8077 58.217C78.1216 58.6189 78.2786 59.0777 78.2786 59.5951C78.2786 60.2517 78.0243 60.8165 77.5173 61.2896C77.0104 61.7627 76.3653 62 75.5837 62C75.3389 62 75.1066 61.9747 74.8884 61.9241C74.6702 61.8734 74.3956 61.7785 74.066 61.6409C73.8823 61.5633 73.7301 61.5254 73.6124 61.5254C73.5135 61.5254 73.4068 61.5633 73.2969 61.6409C73.1855 61.7184 73.096 61.8355 73.0269 61.9937H72.8151V59.0271H73.0269C73.1949 59.8609 73.5198 60.4969 74.0016 60.9352C74.4819 61.3735 74.9998 61.5934 75.5554 61.5934C75.9839 61.5934 76.3261 61.4763 76.5819 61.2406C76.8362 61.0048 76.9633 60.7311 76.9633 60.4178C76.9633 60.2327 76.9146 60.0523 76.8173 59.8783C76.72 59.7042 76.5709 59.5397 76.3716 59.3831C76.1723 59.2264 75.8207 59.0223 75.3137 58.7723C74.6043 58.4211 74.0958 58.1221 73.785 57.8752C73.4743 57.6284 73.2357 57.3515 73.0693 57.0462C72.903 56.7408 72.8198 56.4054 72.8198 56.0383C72.8198 55.4133 73.0474 54.8801 73.5041 54.4403C73.9592 54.0004 74.5353 53.7805 75.2274 53.7805C75.4801 53.7805 75.725 53.8121 75.9635 53.8739C76.144 53.9197 76.3622 54.0068 76.6211 54.1318C76.8801 54.2567 77.0606 54.32 77.1642 54.32C77.2631 54.32 77.3416 54.29 77.3996 54.2283C77.4577 54.1666 77.5111 54.0178 77.5597 53.7821H77.7339V53.7805Z" fill="white"/>
<path d="M87.3014 59.1395L89.4156 53.961H92.5876V54.1746H92.3349C92.1058 54.1746 91.9205 54.2157 91.784 54.2964C91.6883 54.3502 91.6114 54.442 91.5549 54.5686C91.5125 54.6619 91.4921 54.9024 91.4921 55.2932V60.4717C91.4921 60.8736 91.5125 61.1236 91.5549 61.2249C91.5972 61.3261 91.6835 61.4132 91.8138 61.4891C91.9441 61.565 92.1183 61.6014 92.3365 61.6014H92.5892V61.815H88.521V61.6014H88.7737C89.0028 61.6014 89.188 61.5603 89.3246 61.4796C89.4203 61.4258 89.4972 61.3325 89.5537 61.2011C89.5961 61.1078 89.6165 60.8657 89.6165 60.4717V54.6493L86.6281 61.815H86.49L83.4561 54.7015V60.2328C83.4561 60.6189 83.4655 60.8562 83.4843 60.9448C83.5346 61.1378 83.6429 61.2945 83.8092 61.4163C83.9756 61.5381 84.2377 61.5983 84.594 61.5983V61.8119H81.929V61.5983H82.009C82.1817 61.6014 82.3417 61.5745 82.4924 61.5144C82.6415 61.4543 82.7545 61.3752 82.8314 61.2739C82.9083 61.1742 82.968 61.0334 83.0088 60.8515C83.0166 60.8088 83.0198 60.6126 83.0198 60.2613V55.2916C83.0198 54.8945 82.9994 54.6461 82.957 54.5464C82.9146 54.4483 82.8283 54.3613 82.698 54.2854C82.5678 54.2094 82.3935 54.173 82.1754 54.173H81.929V53.9594H85.112L87.3014 59.1395Z" fill="white"/>
<path d="M101.076 57.8765C101.076 59.0821 100.706 60.0694 99.9665 60.8399C99.2272 61.6105 98.2635 61.9949 97.0754 61.9949C95.8763 61.9949 94.9361 61.6152 94.2534 60.8542C93.5911 60.1121 93.2599 59.1169 93.2599 57.8654C93.2599 57.78 93.2662 57.6676 93.2772 57.53H99.0232C98.9965 56.6265 98.8333 55.8987 98.535 55.3466C98.1521 54.6251 97.5604 54.2627 96.7599 54.2627C96.1509 54.2627 95.6361 54.4494 95.2171 54.8244C94.798 55.1994 94.5296 55.6931 94.4151 56.3069H94.2079V53.7818H94.4151C94.5139 54.114 94.6834 54.2802 94.9204 54.2802C95.0319 54.2802 95.3238 54.1979 95.7962 54.0317C96.2687 53.8656 96.7379 53.7833 97.201 53.7833C98.3279 53.7833 99.2539 54.1757 99.9822 54.9589C100.712 55.7405 101.076 56.7136 101.076 57.8765ZM99.0247 58.0379H95.3364C95.3364 59.1074 95.4023 59.8637 95.5326 60.3083C95.7821 61.1421 96.2906 61.5598 97.0613 61.5598C98.3687 61.5598 99.0247 60.3859 99.0247 58.0379Z" fill="white"/>
<path d="M104.621 58.2358V60.4366C104.621 60.8622 104.648 61.1296 104.698 61.2388C104.75 61.3495 104.841 61.4365 104.971 61.503C105.101 61.5694 105.344 61.6011 105.701 61.6011V61.8147H101.713V61.6011C102.072 61.6011 102.317 61.5679 102.445 61.4998C102.574 61.4318 102.664 61.3448 102.715 61.2356C102.767 61.128 102.792 60.8606 102.792 60.4366V55.3387C102.792 54.9147 102.766 54.6457 102.715 54.5366C102.664 54.4258 102.573 54.3388 102.442 54.2723C102.312 54.2075 102.069 54.1742 101.713 54.1742V53.9606H105.332C106.274 53.9606 106.964 54.0271 107.4 54.1584C107.837 54.2897 108.193 54.5318 108.469 54.8847C108.746 55.2375 108.884 55.652 108.884 56.1267C108.884 56.7058 108.677 57.1852 108.264 57.5633C108 57.8022 107.63 57.9826 107.154 58.1013L109.028 60.7594C109.273 61.1027 109.447 61.3179 109.551 61.4017C109.708 61.522 109.89 61.5868 110.097 61.5995V61.8131H107.644L105.133 58.2326H104.621V58.2358ZM104.621 54.3831V57.8244H104.949C105.481 57.8244 105.88 57.7753 106.145 57.6772C106.409 57.5791 106.617 57.4004 106.768 57.144C106.919 56.8877 106.996 56.5523 106.996 56.1393C106.996 55.5413 106.856 55.0983 106.58 54.8135C106.302 54.5271 105.855 54.3847 105.238 54.3847H104.621V54.3831Z" fill="white"/>
<path d="M114.895 56.9669L117.636 60.4256C118.022 60.9129 118.356 61.242 118.635 61.416C118.838 61.5394 119.053 61.6011 119.279 61.6011V61.8147H115.222V61.6011C115.477 61.5774 115.644 61.5379 115.719 61.4793C115.794 61.4208 115.831 61.3496 115.831 61.2641C115.831 61.1027 115.655 60.7974 115.302 60.3496L113.514 58.0855L113.227 58.3292V60.473C113.227 60.8828 113.25 61.1376 113.296 61.2372C113.341 61.3369 113.429 61.4239 113.559 61.4951C113.69 61.5663 113.898 61.6027 114.186 61.6027V61.8163H110.256V61.6027H110.515C110.741 61.6027 110.923 61.5616 111.061 61.4809C111.16 61.4271 111.237 61.3337 111.29 61.2024C111.332 61.1091 111.353 60.867 111.353 60.473V55.3056C111.353 54.9037 111.332 54.6537 111.29 54.5525C111.248 54.4528 111.163 54.3642 111.034 54.2882C110.905 54.2123 110.733 54.1759 110.515 54.1759H110.256V53.9623H114.134V54.1759C113.87 54.1759 113.668 54.2139 113.531 54.2914C113.431 54.3452 113.352 54.437 113.296 54.5635C113.25 54.66 113.227 54.9069 113.227 55.3056V57.7501L116.118 55.3926C116.52 55.0651 116.72 54.8024 116.72 54.6047C116.72 54.4575 116.639 54.342 116.474 54.2566C116.389 54.2139 116.181 54.187 115.848 54.1759V53.9623H118.888V54.1759C118.616 54.1949 118.403 54.2439 118.248 54.323C118.092 54.4021 117.736 54.6695 117.176 55.1252L114.895 56.9669Z" fill="white"/>
<path d="M127.421 57.8765C127.421 59.0821 127.051 60.0694 126.312 60.8399C125.572 61.6105 124.609 61.9949 123.421 61.9949C122.222 61.9949 121.281 61.6152 120.599 60.8542C119.936 60.1121 119.605 59.1169 119.605 57.8654C119.605 57.78 119.611 57.6676 119.622 57.53H125.368C125.342 56.6265 125.178 55.8987 124.88 55.3466C124.497 54.6251 123.906 54.2627 123.105 54.2627C122.496 54.2627 121.981 54.4494 121.562 54.8244C121.143 55.1994 120.875 55.6931 120.76 56.3069H120.553V53.7818H120.76C120.859 54.114 121.029 54.2802 121.266 54.2802C121.377 54.2802 121.669 54.1979 122.141 54.0317C122.614 53.8656 123.083 53.7833 123.546 53.7833C124.673 53.7833 125.599 54.1757 126.327 54.9589C127.057 55.7405 127.421 56.7136 127.421 57.8765ZM125.37 58.0379H121.682C121.682 59.1074 121.748 59.8637 121.878 60.3083C122.127 61.1421 122.636 61.5598 123.406 61.5598C124.714 61.5598 125.37 60.3859 125.37 58.0379Z" fill="white"/>
<path d="M135.025 53.9606L130.445 61.3748H131.928C132.63 61.3748 133.119 61.3305 133.399 61.2419C133.854 61.1027 134.248 60.8464 134.576 60.4746C134.906 60.1027 135.133 59.6028 135.26 58.9778H135.485L135.169 61.8163H128.033L132.619 54.3894H131.464C131.015 54.3894 130.72 54.4037 130.578 54.4306C130.31 54.4812 130.059 54.5809 129.823 54.728C129.588 54.8767 129.392 55.0745 129.238 55.3213C129.083 55.5682 128.962 55.8814 128.874 56.2596H128.662L128.874 53.9606H135.025V53.9606Z" fill="white"/>
<path d="M140.001 61.6012V61.8148H135.926V61.6012H136.185C136.411 61.6012 136.593 61.5601 136.731 61.4794C136.83 61.4256 136.907 61.3323 136.96 61.2009C137.003 61.1076 137.023 60.8655 137.023 60.4715V55.3041C137.023 54.9022 137.003 54.6522 136.96 54.551C136.918 54.4497 136.833 54.3627 136.705 54.2867C136.576 54.2108 136.403 54.1744 136.185 54.1744H135.926V53.9608H140.001V54.1744H139.742C139.516 54.1744 139.334 54.2155 139.195 54.2962C139.095 54.35 139.018 54.4434 138.96 54.5747C138.918 54.668 138.897 54.9101 138.897 55.3041V60.4715C138.897 60.8734 138.919 61.1234 138.963 61.2247C139.007 61.3259 139.093 61.4129 139.222 61.4889C139.351 61.5648 139.523 61.6012 139.742 61.6012H140.001V61.6012ZM137.96 51.6492C138.194 51.6492 138.393 51.7315 138.558 51.8976C138.723 52.0637 138.805 52.2647 138.805 52.5004C138.805 52.7362 138.723 52.9371 138.558 53.1032C138.393 53.2694 138.194 53.3517 137.96 53.3517C137.726 53.3517 137.527 53.2678 137.362 53.1032C137.197 52.9371 137.116 52.7362 137.116 52.5004C137.116 52.2647 137.199 52.0637 137.362 51.8976C137.529 51.7315 137.726 51.6492 137.96 51.6492Z" fill="white"/>
</g>
<defs>
<clipPath id="clip0">
<rect width="140" height="62" fill="white"/>
</clipPath>
</defs>
</svg>
