<?xml version="1.0" encoding="UTF-8" standalone="no"?>
<svg
   xmlns:dc="http://purl.org/dc/elements/1.1/"
   xmlns:cc="http://creativecommons.org/ns#"
   xmlns:rdf="http://www.w3.org/1999/02/22-rdf-syntax-ns#"
   xmlns:svg="http://www.w3.org/2000/svg"
   xmlns="http://www.w3.org/2000/svg"
   viewBox="0 0 1440 1440"
   height="1440"
   width="1440"
   xml:space="preserve"
   id="svg2"
   version="1.1"><metadata
     id="metadata8"><rdf:RDF><cc:Work
         rdf:about=""><dc:format>image/svg+xml</dc:format><dc:type
           rdf:resource="http://purl.org/dc/dcmitype/StillImage" /></cc:Work></rdf:RDF></metadata><defs
     id="defs6"><clipPath
       id="clipPath18"
       clipPathUnits="userSpaceOnUse"><path
         id="path16"
         d="M 0,1080 H 1080 V 0 H 0 Z" /></clipPath><linearGradient
       id="linearGradient48"
       spreadMethod="pad"
       gradientTransform="matrix(12.16345,286.39398,286.39398,-12.16345,405.42557,441.50632)"
       gradientUnits="userSpaceOnUse"
       y2="0"
       x2="1"
       y1="0"
       x1="0"><stop
         id="stop44"
         offset="0"
         style="stop-opacity:1;stop-color:#8ecf47" /><stop
         id="stop46"
         offset="1"
         style="stop-opacity:1;stop-color:#c1d752" /></linearGradient><clipPath
       id="clipPath58"
       clipPathUnits="userSpaceOnUse"><path
         id="path56"
         d="M 0,1080 H 1080 V 0 H 0 Z" /></clipPath><clipPath
       id="clipPath66"
       clipPathUnits="userSpaceOnUse"><path
         id="path64"
         d="m 502.551,688.151 h 12.247 V 474.347 h -12.247 z" /></clipPath><clipPath
       id="clipPath82"
       clipPathUnits="userSpaceOnUse"><path
         id="path80"
         d="m 311.175,703.944 h 37.463 V 486.921 h -37.463 z" /></clipPath><linearGradient
       id="linearGradient110"
       spreadMethod="pad"
       gradientTransform="matrix(-1.6586523,364.90353,364.90353,1.6586523,248.01257,391.66852)"
       gradientUnits="userSpaceOnUse"
       y2="0"
       x2="1"
       y1="0"
       x1="0"><stop
         id="stop104"
         offset="0"
         style="stop-opacity:1;stop-color:#17b7bf" /><stop
         id="stop106"
         offset="0.994413"
         style="stop-opacity:1;stop-color:#77ccef" /><stop
         id="stop108"
         offset="1"
         style="stop-opacity:1;stop-color:#77ccef" /></linearGradient><linearGradient
       id="linearGradient130"
       spreadMethod="pad"
       gradientTransform="matrix(-16.586523,364.9035,364.9035,16.586523,739.09735,438.66656)"
       gradientUnits="userSpaceOnUse"
       y2="0"
       x2="1"
       y1="0"
       x1="0"><stop
         id="stop126"
         offset="0"
         style="stop-opacity:1;stop-color:#f45f3a" /><stop
         id="stop128"
         offset="1"
         style="stop-opacity:1;stop-color:#fcb37c" /></linearGradient><clipPath
       id="clipPath140"
       clipPathUnits="userSpaceOnUse"><path
         id="path138"
         d="M 0,1080 H 1080 V 0 H 0 Z" /></clipPath><clipPath
       id="clipPath148"
       clipPathUnits="userSpaceOnUse"><path
         id="path146"
         d="m 803.789,717.739 h 26.266 V 501.128 h -26.266 z" /></clipPath><linearGradient
       id="linearGradient174"
       spreadMethod="pad"
       gradientTransform="matrix(-3.3173044,331.73044,331.73044,3.3173044,870.94305,462.54453)"
       gradientUnits="userSpaceOnUse"
       y2="0"
       x2="1"
       y1="0"
       x1="0"><stop
         id="stop170"
         offset="0"
         style="stop-opacity:1;stop-color:#ffaf00" /><stop
         id="stop172"
         offset="1"
         style="stop-opacity:1;stop-color:#ffe059" /></linearGradient><clipPath
       id="clipPath184"
       clipPathUnits="userSpaceOnUse"><path
         id="path182"
         d="M 0,1080 H 1080 V 0 H 0 Z" /></clipPath><clipPath
       id="clipPath192"
       clipPathUnits="userSpaceOnUse"><path
         id="path190"
         d="m 633.398,677.265 h 64.864 V 479.971 h -64.864 z" /></clipPath><linearGradient
       id="linearGradient218"
       spreadMethod="pad"
       gradientTransform="matrix(-5.528841,390.33618,390.33618,5.528841,609.71613,391.99982)"
       gradientUnits="userSpaceOnUse"
       y2="0"
       x2="1"
       y1="0"
       x1="0"><stop
         id="stop214"
         offset="0"
         style="stop-opacity:1;stop-color:#ec0c6a" /><stop
         id="stop216"
         offset="1"
         style="stop-opacity:1;stop-color:#e17ab6" /></linearGradient><clipPath
       id="clipPath228"
       clipPathUnits="userSpaceOnUse"><path
         id="path226"
         d="M 0,1080 H 1080 V 0 H 0 Z" /></clipPath><linearGradient
       id="linearGradient254"
       spreadMethod="pad"
       gradientTransform="matrix(53.898529,220.2028,220.2028,-53.898529,210.3627,482.45248)"
       gradientUnits="userSpaceOnUse"
       y2="0"
       x2="1"
       y1="0"
       x1="0"><stop
         id="stop246"
         offset="0"
         style="stop-opacity:1;stop-color:#8e8e8e" /><stop
         id="stop248"
         offset="0.00558659"
         style="stop-opacity:1;stop-color:#8e8e8e" /><stop
         id="stop250"
         offset="0.398005"
         style="stop-opacity:1;stop-color:#ffffff" /><stop
         id="stop252"
         offset="1"
         style="stop-opacity:1;stop-color:#ffffff" /></linearGradient><clipPath
       id="clipPath264"
       clipPathUnits="userSpaceOnUse"><path
         id="path262"
         d="M 0,1080 H 1080 V 0 H 0 Z" /></clipPath><linearGradient
       id="linearGradient290"
       spreadMethod="pad"
       gradientTransform="matrix(110.76928,200.00085,200.00085,-110.76928,373.06384,491.59891)"
       gradientUnits="userSpaceOnUse"
       y2="0"
       x2="1"
       y1="0"
       x1="0"><stop
         id="stop282"
         offset="0"
         style="stop-opacity:1;stop-color:#8e8e8e" /><stop
         id="stop284"
         offset="0.00558659"
         style="stop-opacity:1;stop-color:#8e8e8e" /><stop
         id="stop286"
         offset="0.398005"
         style="stop-opacity:1;stop-color:#ffffff" /><stop
         id="stop288"
         offset="1"
         style="stop-opacity:1;stop-color:#ffffff" /></linearGradient><clipPath
       id="clipPath300"
       clipPathUnits="userSpaceOnUse"><path
         id="path298"
         d="M 0,1080 H 1080 V 0 H 0 Z" /></clipPath><linearGradient
       id="linearGradient326"
       spreadMethod="pad"
       gradientTransform="matrix(126.95344,158.75682,158.75682,-126.95344,515.41254,496.94968)"
       gradientUnits="userSpaceOnUse"
       y2="0"
       x2="1"
       y1="0"
       x1="0"><stop
         id="stop318"
         offset="0"
         style="stop-opacity:1;stop-color:#8e8e8e" /><stop
         id="stop320"
         offset="0.00558659"
         style="stop-opacity:1;stop-color:#8e8e8e" /><stop
         id="stop322"
         offset="0.612625"
         style="stop-opacity:1;stop-color:#ffffff" /><stop
         id="stop324"
         offset="1"
         style="stop-opacity:1;stop-color:#ffffff" /></linearGradient><clipPath
       id="clipPath336"
       clipPathUnits="userSpaceOnUse"><path
         id="path334"
         d="M 0,1080 H 1080 V 0 H 0 Z" /></clipPath><linearGradient
       id="linearGradient362"
       spreadMethod="pad"
       gradientTransform="matrix(121.30874,208.62543,208.62543,-121.30874,668.41827,493.85083)"
       gradientUnits="userSpaceOnUse"
       y2="0"
       x2="1"
       y1="0"
       x1="0"><stop
         id="stop354"
         offset="0"
         style="stop-opacity:1;stop-color:#8e8e8e" /><stop
         id="stop356"
         offset="0.00558659"
         style="stop-opacity:1;stop-color:#8e8e8e" /><stop
         id="stop358"
         offset="0.612625"
         style="stop-opacity:1;stop-color:#ffffff" /><stop
         id="stop360"
         offset="1"
         style="stop-opacity:1;stop-color:#ffffff" /></linearGradient><clipPath
       id="clipPath372"
       clipPathUnits="userSpaceOnUse"><path
         id="path370"
         d="M 0,1080 H 1080 V 0 H 0 Z" /></clipPath><linearGradient
       id="linearGradient398"
       spreadMethod="pad"
       gradientTransform="matrix(148.83577,85.349175,85.349175,-148.83577,810.1134,549.54504)"
       gradientUnits="userSpaceOnUse"
       y2="0"
       x2="1"
       y1="0"
       x1="0"><stop
         id="stop390"
         offset="0"
         style="stop-opacity:1;stop-color:#8e8e8e" /><stop
         id="stop392"
         offset="0.00558659"
         style="stop-opacity:1;stop-color:#8e8e8e" /><stop
         id="stop394"
         offset="0.612625"
         style="stop-opacity:1;stop-color:#ffffff" /><stop
         id="stop396"
         offset="1"
         style="stop-opacity:1;stop-color:#ffffff" /></linearGradient><clipPath
       id="clipPath408"
       clipPathUnits="userSpaceOnUse"><path
         id="path406"
         d="M 0,1080 H 1080 V 0 H 0 Z" /></clipPath><linearGradient
       id="linearGradient434"
       spreadMethod="pad"
       gradientTransform="matrix(143.11302,6.7067699,93.835411,-32.216984,821.96143,711.20428)"
       gradientUnits="userSpaceOnUse"
       y2="0"
       x2="1"
       y1="0"
       x1="0"><stop
         id="stop426"
         offset="0"
         style="stop-opacity:1;stop-color:#8e8e8e" /><stop
         id="stop428"
         offset="0.00558659"
         style="stop-opacity:1;stop-color:#8e8e8e" /><stop
         id="stop430"
         offset="0.612625"
         style="stop-opacity:1;stop-color:#ffffff" /><stop
         id="stop432"
         offset="1"
         style="stop-opacity:1;stop-color:#ffffff" /></linearGradient><clipPath
       id="clipPath444"
       clipPathUnits="userSpaceOnUse"><path
         id="path442"
         d="M 0,1080 H 1080 V 0 H 0 Z" /></clipPath></defs><g
     transform="matrix(1.3333333,0,0,-1.3333333,0,1440)"
     id="g10"><g
       id="g12"><g
         clip-path="url(#clipPath18)"
         id="g14"><g
           transform="translate(816.3828,759.6606)"
           id="g20"><path
             id="path22"
             style="fill:#494949;fill-opacity:1;fill-rule:nonzero;stroke:none"
             d="m 0,0 c -2.515,-0.642 -170.302,-43.02 -189.443,-47.805 l -17.142,-4.285 1.354,-9.184 -82.596,4.43 v 4.16 l -242.455,49.866 4.391,-35.673 -150.635,27.952 18.62,-320.407 159.238,33.085 0.998,-8.094 209.843,-34.753 5.16,34.254 186.033,-3.628 -4.06,18.656 81.612,11.315 0.889,-16.764 141.953,30.922 -4.354,264.649 -95.304,-18.044 c -0.046,0.455 -0.091,0.871 -0.138,1.253 L 20.181,5.322 Z" /></g><g
           transform="translate(817.6729,754.8691)"
           id="g24"><path
             id="path26"
             style="fill:#ffffff;fill-opacity:1;fill-rule:nonzero;stroke:none"
             d="m 0,0 c -2.67,-0.681 -188.117,-47.679 -189.991,-48.147 l -12.097,-3.024 1.595,-10.803 -88.624,4.754 v 9.328 l -236.474,43.517 4.393,-35.683 -151.084,28.036 17.891,-307.864 158.869,33.008 1.223,-9.921 205.182,-39.118 v 39.666 l 191.193,-9.039 -5.161,23.712 87.567,12.141 0.876,-16.527 137.112,24.803 L 113.174,-2.7 18.12,-20.697 c -0.116,0.528 -0.134,0.996 -0.234,1.503 L 14.26,3.409 Z" /></g><g
           transform="translate(925.9619,505.127)"
           id="g28"><path
             id="path30"
             style="fill:#ffffff;fill-opacity:1;fill-rule:nonzero;stroke:none"
             d="m 0,0 -110.017,-19.901 -0.842,15.893 -117.12,-16.237 4.455,-20.47 -187.643,8.824 v -37.652 l -178.991,34.126 -1.823,14.793 -157.887,-32.802 -16.031,275.884 145.725,-14.242 -4.076,33.112 213.083,-50.364 v -10.871 l 118.581,-7.809 -2.356,15.962 c 0,0 187.97,46.993 190.189,47.56 0.43,0 1.015,-8.875 1.703,-23.203 l 94.759,17.94 z" /></g></g></g><g
       id="g32"><g
         id="g34"><g
           id="g40"><g
             id="g42"><path
               id="path50"
               style="fill:url(#linearGradient48);stroke:none"
               d="M 335.81,469.708 514.802,435.592 V 696.089 L 308.159,732.558 Z" /></g></g></g></g><g
       id="g52"><g
         clip-path="url(#clipPath58)"
         id="g54"><g
           id="g60"><g
             id="g62" /><g
             id="g74"><g
               style="opacity:0.44000202"
               id="g72"
               clip-path="url(#clipPath66)"><g
                 id="g70"
                 transform="translate(514.7979,687.293)"><path
                   id="path68"
                   style="fill:#de1ea7;fill-opacity:1;fill-rule:nonzero;stroke:none"
                   d="m 0,0 v -212.946 l -9.689,1.118 -2.558,212.686 z" /></g></g></g></g><g
           id="g76"><g
             id="g78" /><g
             id="g90"><g
               style="opacity:0.46000701"
               id="g88"
               clip-path="url(#clipPath82)"><g
                 id="g86"
                 transform="translate(348.6382,698.0781)"><path
                   id="path84"
                   style="fill:#25b2d4;fill-opacity:1;fill-rule:nonzero;stroke:none"
                   d="M 0,0 -2.752,-208.509 -14.638,-211.157 -37.464,5.865 Z" /></g></g></g></g></g></g><g
       id="g92"><g
         id="g94"><g
           id="g100"><g
             id="g102"><path
               id="path112"
               style="fill:url(#linearGradient110);stroke:none"
               d="M 176.096,451.693 334,486.921 311.174,703.943 160.065,727.595 Z" /></g></g></g></g><g
       id="g114"><g
         id="g116"><g
           id="g122"><g
             id="g124"><path
               id="path132"
               style="fill:url(#linearGradient130);stroke:none"
               d="m 821.207,740.927 c -2.212,-0.554 -190.193,-47.549 -190.193,-47.549 v 0 l 31.516,-213.413 167.523,23.221 c 0,0 -6.62,237.741 -8.839,237.742 v 0 c -0.002,0 -0.005,-10e-4 -0.007,-10e-4" /></g></g></g></g><g
       id="g134"><g
         clip-path="url(#clipPath140)"
         id="g136"><g
           id="g142"><g
             id="g144" /><g
             id="g156"><g
               style="opacity:0.44000202"
               id="g154"
               clip-path="url(#clipPath148)"><g
                 id="g152"
                 transform="translate(830.0547,503.1924)"><path
                   id="path150"
                   style="fill:#ffd800;fill-opacity:1;fill-rule:nonzero;stroke:none"
                   d="m 0,0 -14.947,-2.064 -11.319,212.981 19.128,3.629 z" /></g></g></g></g></g></g><g
       id="g158"><g
         id="g160"><g
           id="g166"><g
             id="g168"><path
               id="path176"
               style="fill:url(#linearGradient174);stroke:none"
               d="m 822.917,717.738 7.138,-214.545 -14.948,-2.065 0.843,-15.91 110.017,19.901 -8.291,230.56 z" /></g></g></g></g><g
       id="g178"><g
         clip-path="url(#clipPath184)"
         id="g180"><g
           id="g186"><g
             id="g188" /><g
             id="g200"><g
               style="opacity:0.44000202"
               id="g198"
               clip-path="url(#clipPath192)"><g
                 id="g196"
                 transform="translate(698.2627,484.9248)"><path
                   id="path194"
                   style="fill:#de1ea7;fill-opacity:1;fill-rule:nonzero;stroke:none"
                   d="m 0,0 -35.727,-4.953 -29.138,197.293 26.043,-2.201 z" /></g></g></g></g></g></g><g
       id="g202"><g
         id="g204"><g
           id="g210"><g
             id="g212"><path
               id="path220"
               style="fill:url(#linearGradient218);stroke:none"
               d="m 514.798,474.347 187.645,-9.925 -4.181,20.502 -35.726,-4.952 -29.139,197.293 -118.599,10.028 z" /></g></g></g></g><g
       id="g222"><g
         clip-path="url(#clipPath228)"
         id="g224"><g
           transform="translate(256.4521,633.7788)"
           id="g230"><path
             id="path232"
             style="fill:#8e8e8e;fill-opacity:1;fill-rule:nonzero;stroke:none"
             d="m 0,0 c -1.764,-3.866 -4.478,-6.852 -8.161,-8.947 -2.026,-1.18 -4.308,-2.133 -6.863,-2.859 -2.553,-0.743 -5.173,-1.237 -7.858,-1.498 -1.716,-0.364 -3.436,-0.623 -5.173,-0.799 -1.737,-0.175 -3.373,-0.329 -4.904,-0.48 -0.189,-0.021 -0.432,-0.035 -0.725,-0.059 -0.29,-0.041 -0.638,0.029 -1.036,0.177 l -7.505,-0.725 -4.228,43.296 2.546,0.251 4.665,0.45 c 0.961,0.107 1.926,0.196 2.89,0.285 0.961,0.107 1.906,0.297 2.85,0.575 0.964,0.09 1.98,0.189 3.045,0.299 1.049,0.107 2.065,0.206 3.029,0.296 0.57,0.045 1.103,0.099 1.586,0.144 0.478,0.062 0.91,0.096 1.305,0.14 2.121,0.008 4.166,-0.036 6.133,-0.13 1.95,-0.098 3.728,-0.476 5.341,-1.081 4.01,-1.173 7.415,-3.259 10.236,-6.286 C -0.004,20.021 1.625,16.296 2.047,11.854 2.395,8.222 1.888,4.645 0.487,1.151 0.336,0.77 0.168,0.385 0,0 m 50.78,-40.938 c -7.163,8.714 -16.807,14.331 -28.895,16.84 1.745,1.089 3.373,2.243 4.888,3.514 4.528,3.738 7.981,8.278 10.36,13.619 0.259,0.544 0.484,1.08 0.705,1.634 3.114,7.875 4.257,15.95 3.463,24.23 -0.986,10.014 -4.699,19.109 -11.133,27.339 -6.43,8.213 -14.301,14.082 -23.584,17.648 -8.067,3.11 -16.237,4.637 -24.495,4.603 -8.258,-0.035 -16.512,-0.438 -24.789,-1.248 -0.583,-0.065 -1.204,-0.12 -1.875,-0.186 -0.671,-0.065 -1.309,-0.123 -1.875,-0.185 -0.776,-0.069 -1.549,-0.155 -2.307,-0.22 -0.776,-0.069 -1.552,-0.05 -2.345,0.053 l -36.123,-3.517 -0.384,3.905 18.665,-217.508 53.398,5.213 c 0.809,0.077 1.615,0.168 2.425,0.245 -0.154,1.285 -0.281,2.61 -0.402,3.902 -0.303,3.588 -0.474,6.87 -0.459,8.189 l -0.011,0.051 c 0.023,0.496 0.034,1.919 -0.243,2.162 -0.02,0.013 -0.04,0.027 -0.108,0.013 -0.202,-0.041 -0.546,-0.338 -1.037,-0.858 -2.877,-4.09 -6.914,-6.695 -12.006,-7.723 -5.564,-1.123 -10.636,0.012 -12.327,0.477 -0.47,-1.323 -1.548,-2.242 -2.981,-2.531 -1.383,-0.279 -2.874,0.069 -3.878,0.866 -0.433,-0.806 -0.973,-1.09 -1.377,-1.172 -0.624,-0.126 -1.269,0.112 -1.776,0.625 -0.446,0.47 -0.653,1.061 -0.587,1.6 -0.516,0.3 -0.965,0.876 -1.179,1.499 -0.153,0.496 -0.232,1.234 0.195,2.075 -0.632,1.048 -0.749,2.236 -0.323,3.252 0.393,0.921 1.209,1.577 2.055,1.643 0.227,1.397 1.123,2.349 2.455,2.619 1.602,0.323 3.381,-0.406 4.28,-1.733 1.08,0.042 2.451,-0.751 2.927,-3.113 2.143,-0.357 4.069,-0.337 5.907,0.034 4.063,0.821 7.797,3.364 12.881,8.777 3.261,2.711 6.296,4.71 9.06,5.97 0.9,0.41 1.763,0.742 2.559,0.972 0.432,0.122 0.853,0.207 1.194,0.259 0.043,0.22 0.131,0.395 0.316,0.433 0.034,0.006 0.078,-0.037 0.115,-0.047 l -0.171,0.93 c -8.931,-0.785 -16.253,2.545 -18.472,3.712 -1.901,0.986 -3.195,2.444 -4.089,4.176 l -2.546,-0.251 -0.519,5.353 -0.067,-0.014 c -0.658,-0.133 -1.991,-0.139 -3.403,1.296 -0.632,0.61 -1.058,1.419 -1.306,2.299 -1.867,0.466 -4.705,1.401 -5.552,3.073 -0.345,0.668 -0.336,1.406 0.037,2.166 -0.52,0.492 -2.612,2.596 -2.366,4.769 0.126,1.114 0.846,2.066 2.134,2.817 -0.46,0.452 -0.731,1.011 -0.789,1.648 -0.189,1.805 1.218,3.791 1.618,4.328 l -2.826,3.044 c -0.047,0.061 -0.063,0.145 -0.023,0.206 l 0.359,0.915 c -0.645,0.15 -2.295,0.765 -2.553,3.521 -0.21,2.344 0.933,2.943 1.624,3.083 0.135,0.027 0.256,0.034 0.361,0.037 -0.4,0.85 -1.122,3.301 1.642,6.473 1.268,1.537 3.086,2.097 4.047,2.291 0.236,0.048 0.425,0.068 0.563,0.078 -0.143,0.621 -0.382,2.415 0.704,4.249 0.303,0.5 0.683,0.962 1.128,1.368 l -0.117,1.275 2.442,0.247 c 1.362,0.644 3.028,1.085 5.011,1.345 0.026,1.953 2.146,3.276 4.152,3.681 0.894,0.18 1.785,0.202 2.604,0.052 0.339,1.542 1.281,2.522 2.731,2.814 1.349,0.273 3.168,-0.045 5.146,-0.891 0.999,1.57 2.408,2.591 4.111,2.935 1.736,0.35 3.764,-0.047 5.328,-1.013 0.979,1.321 2.226,2.186 3.659,2.476 2.276,0.459 4.626,-0.663 5.912,-2.773 0.556,0.2 1.086,0.36 1.574,0.459 3.457,0.697 4.948,-1.213 5.899,-3.232 1.793,1.116 3.625,1.17 5.043,0.14 1.004,-0.71 1.704,-1.92 1.902,-3.248 1.164,0.059 2.072,-0.354 2.559,-1.203 0.534,-0.911 0.51,-2.179 0.005,-3.158 1.06,0.143 1.363,0.03 1.479,-0.193 0.142,-0.27 -0.064,-0.557 -0.407,-0.942 0.202,-0.047 0.381,-0.151 0.456,-0.347 0.152,-0.32 -0.107,-0.688 -0.356,-1.019 0.057,-0.024 0.095,-0.033 0.135,-0.06 0.054,-0.007 0.111,-0.03 0.152,-0.057 0.074,-0.021 0.138,-0.078 0.199,-0.118 0.041,-0.027 0.081,-0.054 0.125,-0.098 0.048,-0.06 0.095,-0.121 0.146,-0.198 0.023,-0.031 0.047,-0.061 0.074,-0.108 0.04,-0.115 0.085,-0.246 0.095,-0.385 0.089,-0.789 -0.536,-1.775 -1.835,-2.037 -0.017,-0.004 -0.034,-0.007 -0.034,-0.007 0.038,-0.361 0.073,-0.705 0.104,-1.032 0.013,-0.068 0.027,-0.135 0.023,-0.206 0.031,-0.239 0.042,-0.465 0.066,-0.671 0,-0.088 0.014,-0.155 0.01,-0.226 0.024,-0.206 0.042,-0.378 0.042,-0.553 0.006,-0.034 0.013,-0.067 0.003,-0.104 0.372,-0.54 0.694,-1.089 0.971,-1.682 0.567,-0.114 1.236,-0.383 1.76,-0.979 0.773,-0.879 0.992,-2.221 0.627,-3.98 1.03,-0.318 1.699,-0.85 1.97,-1.585 0.424,-1.143 -0.188,-2.46 -0.676,-3.259 1.215,-0.457 1.665,-1.296 1.795,-1.937 0.343,-1.44 -0.487,-3.152 -1.505,-4.199 0.423,-0.266 0.66,-0.657 0.694,-1.176 0.049,-0.499 -0.113,-1.094 -0.419,-1.664 0.136,-0.236 0.268,-0.455 0.356,-0.718 0.634,-1.574 0.606,-3.264 -0.046,-4.642 -0.8,-1.6 -1.868,-2.132 -2.627,-2.285 -0.759,-0.153 -1.46,0.021 -1.869,0.307 0.086,-10.774 -10.847,-18.683 -21.307,-22.585 0.085,-0.422 0.214,-0.974 0.261,-1.211 0.014,-0.067 0.028,-0.134 0.297,-0.168 0.017,0.004 0.051,0.011 0.088,0 0.051,0.099 0.138,0.187 0.239,0.207 0.152,0.031 0.29,-0.046 0.402,-0.165 0.374,0.059 0.846,0.154 1.47,0.28 0.166,0.05 0.334,0.085 0.52,0.122 l 0.691,0.139 c 0.83,0.151 1.706,0.328 2.634,0.515 l 0.472,0.095 c 3.254,0.657 7.975,1.785 11.429,3.798 4.728,2.92 9.967,10.171 12.659,14.224 0.999,1.483 0.536,2.126 -0.049,2.938 -0.071,0.091 -0.139,0.165 -0.193,0.259 -0.392,0.553 -0.734,1.116 -0.617,1.753 0.127,0.588 0.592,1.155 1.471,1.754 1.013,3.153 2.09,4.861 3.152,5.075 0.405,0.082 0.985,-0.011 1.574,-0.84 1.132,0.299 2.033,0.182 2.712,-0.312 0.764,-0.566 0.998,-1.466 1.069,-1.82 0.517,-0.124 2.164,-0.721 1.976,-3.181 0.498,-0.812 0.546,-1.926 0.13,-2.904 -0.38,-0.901 -1.077,-1.533 -1.853,-1.691 -0.235,-0.046 -0.482,-0.044 -0.735,-0.007 -0.813,-3.358 -2.912,-3.22 -3.496,-3.11 -0.467,-0.726 -2.983,-4.779 -6.712,-10.391 -5.671,-8.937 -12.975,-12.481 -16.044,-13.1 l -0.185,-0.038 c -0.085,-0.017 -0.132,-0.044 -0.155,-0.102 -0.149,-0.222 -0.218,-0.921 0.308,-2.833 0.003,-0.016 0.027,-0.046 0.031,-0.063 0.003,-0.018 -0.014,-0.021 -0.014,-0.021 0.672,-2.461 2.042,-6.203 3.831,-10.896 0.37,-0.96 0.746,-1.955 1.149,-2.996 0.01,-0.051 0.037,-0.099 0.047,-0.149 0.894,0.268 1.784,0.553 2.671,0.855 7.912,2.614 14.976,6.742 21.22,12.407 6.719,6.094 11.905,13.002 15.572,20.743 0.014,0.021 0.041,0.061 0.05,0.098 0.484,1.081 0.968,2.161 1.412,3.268 3.674,9.094 5.003,18.856 3.993,29.251 -1.181,12.115 -5.356,22.538 -12.523,31.269" /></g></g></g><g
       id="g234"><g
         id="g236"><g
           id="g242"><g
             id="g244"><path
               id="path256"
               style="fill:url(#linearGradient254);stroke:none"
               d="m 240.719,706.427 c -8.261,-0.018 -16.528,-0.44 -24.804,-1.251 v 0 c -0.567,-0.062 -1.205,-0.121 -1.876,-0.185 v 0 c -0.672,-0.066 -1.292,-0.121 -1.876,-0.186 v 0 c -0.775,-0.069 -1.531,-0.151 -2.306,-0.22 v 0 c -0.776,-0.069 -1.552,-0.05 -2.331,0.074 v 0 l -38.682,-3.789 0.384,-3.906 20.442,-209.447 53.259,5.205 c -0.303,3.588 -0.473,6.87 -0.459,8.189 v 0 l -0.011,0.051 c 0.023,0.496 0.034,1.918 -0.243,2.162 v 0 c -0.02,0.013 -0.04,0.026 -0.108,0.013 v 0 c -0.202,-0.042 -0.545,-0.339 -1.038,-0.859 v 0 c -2.876,-4.089 -6.912,-6.694 -12.005,-7.723 v 0 c -5.564,-1.123 -10.636,0.012 -12.327,0.478 v 0 c -0.47,-1.323 -1.548,-2.242 -2.981,-2.531 v 0 c -1.382,-0.279 -2.874,0.068 -3.878,0.866 v 0 c -0.433,-0.806 -0.973,-1.091 -1.377,-1.172 v 0 c -0.624,-0.126 -1.269,0.111 -1.776,0.624 v 0 c -0.446,0.471 -0.653,1.062 -0.586,1.601 v 0 c -0.517,0.3 -0.966,0.876 -1.18,1.499 v 0 c -0.153,0.496 -0.232,1.235 0.195,2.075 v 0 c -0.632,1.048 -0.749,2.236 -0.322,3.252 v 0 c 0.392,0.921 1.208,1.578 2.054,1.642 v 0 c 0.227,1.398 1.123,2.35 2.455,2.619 v 0 c 1.602,0.324 3.381,-0.405 4.28,-1.733 v 0 c 1.079,0.042 2.451,-0.751 2.927,-3.112 v 0 c 2.143,-0.357 4.069,-0.337 5.907,0.034 v 0 c 4.063,0.821 7.797,3.363 12.881,8.777 v 0 c 3.261,2.711 6.296,4.709 9.061,5.969 v 0 c 0.9,0.411 1.763,0.742 2.558,0.973 v 0 c 0.431,0.122 0.854,0.207 1.194,0.259 v 0 c 0.043,0.219 0.131,0.394 0.317,0.433 v 0 c 0.033,0.006 0.077,-0.037 0.114,-0.047 v 0 l -0.17,0.93 c -8.932,-0.785 -16.254,2.545 -18.473,3.712 v 0 c -1.901,0.985 -3.195,2.443 -4.089,4.176 v 0 c -0.897,1.749 -1.393,3.773 -1.693,5.87 v 0 c -0.273,-0.301 -0.751,-0.626 -1.372,-0.769 v 0 l -0.067,-0.013 c -0.658,-0.133 -1.99,-0.139 -3.403,1.296 v 0 c -0.632,0.61 -1.058,1.419 -1.306,2.298 v 0 c -1.867,0.466 -4.705,1.402 -5.551,3.074 v 0 c -0.346,0.668 -0.337,1.406 0.037,2.166 v 0 c -0.521,0.491 -2.613,2.596 -2.367,4.769 v 0 c 0.126,1.113 0.846,2.066 2.133,2.817 v 0 c -0.459,0.451 -0.729,1.011 -0.788,1.648 v 0 c -0.189,1.805 1.218,3.791 1.618,4.328 v 0 l -2.826,3.044 c -0.047,0.061 -0.064,0.145 -0.023,0.206 v 0 l 0.359,0.914 c -0.644,0.151 -2.295,0.766 -2.553,3.522 v 0 c -0.21,2.344 0.933,2.942 1.624,3.083 v 0 c 0.135,0.027 0.256,0.034 0.361,0.037 v 0 c -0.4,0.849 -1.122,3.301 1.642,6.473 v 0 c 1.269,1.538 3.086,2.096 4.047,2.291 v 0 c 0.236,0.047 0.425,0.068 0.563,0.078 v 0 c -0.143,0.621 -0.382,2.416 0.704,4.249 v 0 c 0.303,0.499 0.683,0.962 1.128,1.368 v 0 c 0.633,0.601 1.408,1.109 2.325,1.522 v 0 c 1.361,0.643 3.028,1.084 5.011,1.345 v 0 c 0.027,1.953 2.146,3.276 4.152,3.68 v 0 c 0.894,0.18 1.785,0.203 2.604,0.053 v 0 c 0.338,1.541 1.282,2.522 2.732,2.814 v 0 c 1.349,0.273 3.168,-0.045 5.146,-0.892 v 0 c 0.999,1.571 2.407,2.592 4.11,2.935 v 0 c 1.736,0.351 3.765,-0.047 5.328,-1.012 v 0 c 0.979,1.321 2.226,2.186 3.66,2.475 v 0 c 2.276,0.46 4.625,-0.662 5.911,-2.772 v 0 c 0.557,0.2 1.086,0.359 1.575,0.458 v 0 c 3.456,0.698 4.947,-1.212 5.898,-3.231 v 0 c 1.793,1.117 3.625,1.17 5.043,0.14 v 0 c 1.004,-0.71 1.704,-1.92 1.902,-3.248 v 0 c 1.163,0.059 2.072,-0.355 2.558,-1.203 v 0 c 0.535,-0.911 0.511,-2.178 0.007,-3.158 v 0 c 1.059,0.143 1.362,0.029 1.477,-0.193 v 0 c 0.143,-0.27 -0.063,-0.557 -0.406,-0.942 v 0 c 0.202,-0.047 0.381,-0.151 0.456,-0.347 v 0 c 0.152,-0.32 -0.107,-0.688 -0.356,-1.02 v 0 c 0.057,-0.023 0.095,-0.033 0.135,-0.059 v 0 c 0.054,-0.007 0.111,-0.031 0.152,-0.058 v 0 c 0.074,-0.02 0.138,-0.077 0.2,-0.118 v 0 c 0.04,-0.026 0.08,-0.054 0.125,-0.097 v 0 c 0.046,-0.06 0.094,-0.121 0.144,-0.199 v 0 c 0.024,-0.03 0.048,-0.061 0.075,-0.108 v 0 c 0.041,-0.114 0.085,-0.245 0.096,-0.384 v 0 c 0.088,-0.789 -0.538,-1.775 -1.836,-2.038 v 0 c -0.017,-0.003 -0.034,-0.006 -0.034,-0.006 v 0 c 0.038,-0.361 0.073,-0.705 0.104,-1.032 v 0 c 0.013,-0.068 0.027,-0.135 0.023,-0.206 v 0 c 0.032,-0.24 0.042,-0.466 0.066,-0.672 v 0 c 0,-0.087 0.013,-0.154 0.011,-0.225 v 0 c 0.023,-0.206 0.041,-0.378 0.041,-0.553 v 0 c 0.006,-0.034 0.014,-0.068 0.003,-0.105 v 0 l 0.014,-0.067 c 0.017,-0.173 0.014,-0.33 0.028,-0.486 v 0 c 0,-0.176 -0.004,-0.334 0.007,-0.472 v 0 l 0.004,-0.017 c -0.003,-0.246 -0.003,-0.422 -0.013,-0.547 v 0 c 0.209,0.007 0.547,-0.013 0.932,-0.093 v 0 c 0.566,-0.113 1.235,-0.382 1.758,-0.978 v 0 c 0.774,-0.879 0.993,-2.221 0.629,-3.98 v 0 c 1.029,-0.318 1.698,-0.85 1.969,-1.585 v 0 c 0.424,-1.143 -0.188,-2.459 -0.676,-3.259 v 0 c 1.216,-0.458 1.666,-1.296 1.795,-1.937 v 0 c 0.342,-1.44 -0.487,-3.152 -1.504,-4.2 v 0 c 0.422,-0.265 0.658,-0.656 0.693,-1.176 v 0 c 0.049,-0.499 -0.112,-1.093 -0.419,-1.663 v 0 c 0.136,-0.237 0.268,-0.456 0.356,-0.718 v 0 c 0.634,-1.574 0.606,-3.265 -0.045,-4.642 v 0 c -0.801,-1.601 -1.869,-2.132 -2.628,-2.285 v 0 c -0.759,-0.153 -1.46,0.021 -1.869,0.307 v 0 c 0.086,-10.775 -10.847,-18.684 -21.307,-22.585 v 0 c 0.085,-0.422 0.214,-0.975 0.262,-1.211 v 0 c 0.013,-0.067 0.027,-0.135 0.297,-0.168 v 0 c 0.017,0.004 0.05,0.011 0.087,0 v 0 c 0.051,0.099 0.138,0.187 0.239,0.207 v 0 c 0.152,0.03 0.291,-0.047 0.402,-0.165 v 0 c 0.374,0.059 0.847,0.153 1.47,0.279 v 0 c 0.166,0.051 0.334,0.086 0.52,0.123 v 0 l 0.691,0.139 c 0.83,0.15 1.706,0.328 2.634,0.515 v 0 l 0.472,0.094 c 3.254,0.657 7.975,1.786 11.429,3.798 v 0 c 4.727,2.92 9.967,10.172 12.659,14.225 v 0 c 0.999,1.482 0.536,2.126 -0.049,2.938 v 0 c -0.071,0.09 -0.139,0.165 -0.193,0.26 v 0 c -0.392,0.552 -0.733,1.115 -0.617,1.752 v 0 c 0.127,0.588 0.592,1.155 1.471,1.754 v 0 c 1.014,3.153 2.09,4.861 3.152,5.075 v 0 c 0.405,0.082 0.985,-0.012 1.574,-0.841 v 0 c 1.132,0.3 2.033,0.183 2.712,-0.312 v 0 c 0.764,-0.565 0.998,-1.465 1.07,-1.82 v 0 c 0.516,-0.124 2.163,-0.72 1.975,-3.18 v 0 c 0.498,-0.813 0.547,-1.926 0.13,-2.905 v 0 c -0.38,-0.9 -1.076,-1.532 -1.852,-1.69 v 0 c -0.236,-0.047 -0.483,-0.044 -0.736,-0.008 v 0 c -0.813,-3.357 -2.912,-3.219 -3.496,-3.109 v 0 c -0.467,-0.727 -2.983,-4.779 -6.711,-10.392 v 0 c -5.672,-8.936 -12.976,-12.48 -16.045,-13.099 v 0 l -0.185,-0.038 c -0.085,-0.017 -0.131,-0.044 -0.155,-0.102 v 0 c -0.148,-0.223 -0.218,-0.92 0.309,-2.833 v 0 c 0.003,-0.016 0.026,-0.047 0.03,-0.063 v 0 c 0.003,-0.018 -0.014,-0.021 -0.014,-0.021 v 0 c 0.672,-2.461 2.042,-6.203 3.831,-10.896 v 0 c 2.023,0.583 4.022,1.198 6.029,1.866 v 0 c 7.912,2.615 14.993,6.746 21.237,12.411 v 0 c 5.469,4.981 9.936,10.498 13.394,16.583 v 0 c 0.013,0.021 0.04,0.061 0.049,0.097 v 0 c 1.359,2.398 2.563,4.87 3.59,7.428 v 0 c 3.675,9.095 5.003,18.856 3.994,29.251 v 0 c -1.181,12.115 -5.373,22.535 -12.539,31.267 v 0 c -6.627,8.049 -15.333,13.453 -26.17,16.196 v 0 c -0.89,0.241 -1.808,0.443 -2.726,0.644 v 0 c 5.573,3.422 9.948,7.745 13.086,12.976 v 0 c 1.106,1.82 2.069,3.751 2.868,5.79 v 0 c 3.113,7.876 4.273,15.954 3.462,24.23 v 0 c -0.985,10.014 -4.682,19.112 -11.116,27.342 v 0 c -6.447,8.209 -14.301,14.083 -23.583,17.648 v 0 c -8.004,3.076 -16.09,4.603 -24.247,4.604 v 0 c -0.083,0 -0.166,-10e-4 -0.25,-10e-4 m -28.173,-44.291 -0.385,3.905 7.211,0.701 c 0.961,0.107 1.925,0.196 2.89,0.286 v 0 c 0.961,0.106 1.923,0.3 2.867,0.578 v 0 c 0.964,0.09 1.963,0.186 3.028,0.296 v 0 c 1.05,0.106 2.065,0.206 3.029,0.295 v 0 c 0.584,0.065 1.103,0.1 1.582,0.161 v 0 c 0.482,0.045 0.914,0.079 1.308,0.124 v 0 c 2.139,0.011 4.184,-0.033 6.134,-0.131 v 0 c 1.949,-0.097 3.728,-0.475 5.341,-1.08 v 0 c 4.011,-1.174 7.415,-3.259 10.236,-6.287 v 0 c 2.823,-3.028 4.452,-6.752 4.891,-11.191 v 0 c 0.392,-4.028 -0.3,-7.992 -2.047,-11.854 v 0 c -0.488,-1.064 -1.055,-2.074 -1.692,-3.009 v 0 c -1.649,-2.438 -3.81,-4.42 -6.469,-5.938 v 0 c -2.026,-1.182 -4.308,-2.133 -6.863,-2.859 v 0 c -2.553,-0.744 -5.173,-1.238 -7.875,-1.502 v 0 c -1.717,-0.364 -3.436,-0.623 -5.173,-0.799 v 0 c -1.72,-0.171 -3.356,-0.326 -4.904,-0.48 v 0 c -0.192,-0.004 -0.432,-0.034 -0.725,-0.059 v 0 c -0.29,-0.041 -0.638,0.029 -1.036,0.177 v 0 l -7.505,-0.725 z" /></g></g></g></g><g
       id="g258"><g
         clip-path="url(#clipPath264)"
         id="g260"><g
           transform="translate(366.2319,688.084)"
           id="g266"><path
             id="path268"
             style="fill:#8e8e8e;fill-opacity:1;fill-rule:nonzero;stroke:none"
             d="m 0,0 104.919,4.747 6.298,-32.377 -74.338,-9.581 3.707,-46.384 67.94,5.431 6.298,-32.374 -71.337,-9.341 3.707,-46.384 70.941,5.671 6.298,-32.377 -111.714,-12.569 z" /></g></g></g><g
       id="g270"><g
         id="g272"><g
           id="g278"><g
             id="g280"><path
               id="path292"
               style="fill:url(#linearGradient290);stroke:none"
               d="m 366.232,688.084 16.117,-201.627 108.316,8.658 -2.9,36.288 -70.941,-5.671 -3.708,46.384 67.939,5.43 -2.899,36.285 -67.941,-5.431 -3.707,46.383 70.941,5.671 -2.901,36.288 z" /></g></g></g></g><g
       id="g294"><g
         clip-path="url(#clipPath300)"
         id="g296"><g
           transform="translate(613.0322,524.6934)"
           id="g302"><path
             id="path304"
             style="fill:#8e8e8e;fill-opacity:1;fill-rule:nonzero;stroke:none"
             d="m 0,0 c -22.104,-17.235 -40.56,4.868 -40.56,4.868 0,0 -4.386,8.016 -1.703,17.975 -8.257,-2.666 -6.33,-10.699 -6.33,-10.699 0,0 1.703,-6.794 -0.24,-9.46 -3.148,-0.741 -1.204,2.907 -5.573,-2.684 -0.74,10.218 -4.387,9.959 -5.591,16.29 -1.221,6.312 3.389,11.163 3.389,11.163 0,0 10.699,11.662 18.955,3.646 7.052,10.2 18.697,8.256 18.697,8.256 0,0 1.703,7.535 -2.184,11.181 5.831,-0.241 16.048,-7.052 16.048,-7.052 0,0 13.589,-0.482 12.144,-8.738 C 1.462,37.412 0,32.562 0,32.562 0,32.562 22.103,17.252 0,0 m -45.909,114.85 h 9.288 c 0.894,0 1.771,0.103 2.666,0.275 h 8.223 c 1.961,-0.172 3.818,-0.395 5.589,-0.67 1.755,-0.259 3.355,-0.757 4.783,-1.462 3.526,-1.411 6.45,-3.63 8.755,-6.64 2.304,-3.01 3.457,-6.554 3.457,-10.613 0,-3.733 -0.98,-7.276 -2.924,-10.63 -1.944,-3.371 -4.696,-5.848 -8.24,-7.431 -1.943,-0.894 -4.111,-1.565 -6.501,-1.995 -2.391,-0.447 -4.833,-0.671 -7.311,-0.671 -1.582,-0.172 -3.182,-0.258 -4.781,-0.258 h -5.178 c -0.258,0 -0.567,0.086 -0.929,0.258 h -6.897 z M 36.552,43.277 c -5.745,8.584 -14.036,14.57 -24.822,17.924 7.259,3.543 12.661,8.772 16.204,15.67 3.526,6.915 5.297,14.173 5.297,21.776 0,9.22 -2.562,17.837 -7.688,25.904 -5.143,8.051 -11.782,14.122 -19.936,18.199 -7.069,3.543 -14.379,5.659 -21.896,6.364 -7.534,0.705 -15.103,1.067 -22.723,1.067 h -5.573 c -0.705,0 -1.41,0.086 -2.133,0.275 l -32.337,3.233 -3.251,-199.529 h 54.853 c 1.858,0 3.767,0.086 5.711,0.276 1.307,0.05 2.614,0.136 3.922,0.24 l 0.757,0.826 c -11.301,3.405 -12.901,8.102 -12.901,8.102 0,0 11.507,2.614 13.193,10.853 0.86,4.111 -0.998,7.018 -3.079,8.893 -2.15,1.943 -4.988,2.959 -7.895,3.027 -2.202,0.052 -5.144,-0.138 -7.844,-1.084 -5.228,-1.823 -5.091,-1.823 -7.568,0.259 -2.494,2.098 1.565,4.196 1.565,4.196 0,0 3.389,0.654 3.974,4.902 0.068,0.62 0.722,0.998 1.29,0.723 2.718,-1.272 9.288,-4.386 11.129,-5.298 3.337,-1.771 15.893,-3.337 23.341,1.961 6.743,4.799 11.731,13.296 17.132,18.061 1.411,1.256 3.647,0.275 3.681,-1.634 V 8.429 C 18.973,7.225 19.884,6.21 21.088,6.089 L 22.43,5.935 c 2.132,-0.224 3.405,-2.546 2.39,-4.438 -0.911,-1.755 -2.562,-3.389 -5.504,-3.389 -6.278,0 -7.138,-0.654 -7.138,-0.654 0,0 -10.734,-5.091 -7.156,-20.658 2.409,-8.05 8.136,-11.679 11.353,-13.142 1.686,0.998 3.303,2.082 4.902,3.269 7.62,5.659 13.503,12.471 17.665,20.452 4.163,7.964 6.245,16.719 6.245,26.282 0,11.164 -2.874,21.02 -8.635,29.62" /></g></g></g><g
       id="g306"><g
         id="g308"><g
           id="g314"><g
             id="g316"><path
               id="path328"
               style="fill:url(#linearGradient326);stroke:none"
               d="M 533.977,678.383 V 482.105 h 54.853 c 0.62,0 1.24,0.016 1.859,0.051 v 0 c -6.554,3.01 -7.62,6.141 -7.62,6.141 v 0 c 0,0 11.506,2.614 13.192,10.854 v 0 c 0.86,4.111 -0.997,7.017 -3.078,8.892 v 0 c -2.151,1.943 -4.989,2.959 -7.896,3.027 v 0 c -2.202,0.052 -5.143,-0.137 -7.843,-1.084 v 0 c -5.229,-1.823 -5.092,-1.823 -7.569,0.259 v 0 c -2.494,2.099 1.566,4.197 1.566,4.197 v 0 c 0,0 3.388,0.654 3.973,4.902 v 0 c 0.068,0.619 0.722,0.998 1.29,0.723 v 0 c 2.718,-1.273 9.288,-4.386 11.129,-5.299 v 0 c 3.336,-1.771 15.893,-3.337 23.341,1.962 v 0 c 6.743,4.798 11.731,13.295 17.132,18.06 v 0 c 1.41,1.256 3.647,0.275 3.681,-1.634 v 0 -0.034 c 0.018,-1.204 0.929,-2.218 2.133,-2.34 v 0 l 1.342,-0.154 c 2.133,-0.224 3.405,-2.546 2.39,-4.438 v 0 c -0.91,-1.755 -2.562,-3.388 -5.503,-3.388 v 0 c -6.278,0 -7.139,-0.654 -7.139,-0.654 v 0 c 0,0 -10.733,-5.092 -7.156,-20.659 v 0 c 2.082,-6.932 6.606,-10.596 9.873,-12.401 v 0 c 3.355,1.565 6.572,3.491 9.634,5.762 v 0 c 7.619,5.659 13.503,12.488 17.664,20.451 v 0 c 4.164,7.964 6.244,16.737 6.244,26.301 v 0 c 0,11.146 -2.889,21.019 -8.634,29.603 v 0 c -5.763,8.6 -14.037,14.568 -24.838,17.94 v 0 c 7.259,3.527 12.659,8.756 16.203,15.67 v 0 c 3.543,6.897 5.315,14.156 5.315,21.777 v 0 c 0,9.202 -2.563,17.837 -7.706,25.903 v 0 c -5.126,8.051 -11.765,14.105 -19.918,18.181 v 0 c -7.088,3.545 -14.398,5.66 -21.914,6.382 v 0 c -7.535,0.706 -15.103,1.05 -22.705,1.05 v 0 h -5.574 c -0.723,0 -1.427,0.086 -2.133,0.275 v 0 z m 36.379,-35.589 h 9.306 c 0.878,0 1.771,0.087 2.65,0.258 v 0 h 8.239 c 1.943,-0.171 3.801,-0.395 5.572,-0.653 v 0 c 1.772,-0.275 3.372,-0.757 4.783,-1.462 v 0 c 3.543,-1.428 6.467,-3.629 8.772,-6.64 v 0 c 2.288,-3.01 3.44,-6.553 3.44,-10.63 v 0 c 0,-3.716 -0.964,-7.259 -2.907,-10.63 v 0 c -1.961,-3.354 -4.695,-5.831 -8.24,-7.431 v 0 c -1.96,-0.894 -4.111,-1.548 -6.501,-1.995 v 0 c -2.391,-0.447 -4.833,-0.653 -7.311,-0.653 v 0 c -1.599,-0.19 -3.182,-0.276 -4.781,-0.276 v 0 h -5.177 c -0.276,0 -0.586,0.086 -0.929,0.276 v 0 h -6.916 z m 21.536,-67.564 c 5.831,-0.242 16.048,-7.053 16.048,-7.053 v 0 c 0,0 13.589,-0.481 12.144,-8.738 v 0 c -5.59,2.667 -7.052,-2.184 -7.052,-2.184 v 0 c 0,0 22.102,-15.309 0,-32.561 v 0 c -22.104,-17.236 -40.559,4.868 -40.559,4.868 v 0 c 0,0 -4.387,8.015 -1.704,17.974 v 0 c -8.256,-2.666 -6.33,-10.7 -6.33,-10.7 v 0 c 0,0 1.703,-6.793 -0.24,-9.459 v 0 c -1.014,-0.239 -1.499,-0.022 -1.839,0.194 v 0 c -0.712,0.456 -0.772,0.913 -3.734,-2.877 v 0 c -0.74,10.217 -4.387,9.958 -5.591,16.289 v 0 c -1.221,6.312 3.389,11.163 3.389,11.163 v 0 c 0,0 10.699,11.662 18.955,3.646 v 0 c 7.052,10.201 18.697,8.257 18.697,8.257 v 0 c 0,0 1.703,7.534 -2.184,11.181" /></g></g></g></g><g
       id="g330"><g
         clip-path="url(#clipPath336)"
         id="g332"><g
           transform="translate(745.3203,543.6597)"
           id="g338"><path
             id="path340"
             style="fill:#8e8e8e;fill-opacity:1;fill-rule:nonzero;stroke:none"
             d="m 0,0 c 5.278,0.604 10.316,1.625 15.119,3.057 4.795,1.428 9.329,4.074 13.588,7.932 2.985,2.768 4.989,5.845 6.013,9.221 1.016,3.372 1.226,7.071 0.627,11.101 -0.705,4.731 -2.386,8.506 -5.043,11.334 -2.665,2.826 -6.261,5.062 -10.802,6.717 C 15.36,50.711 11.25,51.261 7.171,51.014 3.089,50.763 -1.053,50.328 -5.254,49.703 -5.433,49.676 -5.649,49.644 -5.913,49.604 -6.174,49.565 -6.398,49.532 -6.569,49.507 l -15.763,-2.348 7.355,-49.389 z m -20.745,83.377 c 0.375,-0.123 0.694,-0.163 0.958,-0.124 0.264,0.04 0.481,0.072 0.659,0.099 1.398,0.208 2.89,0.43 4.465,0.665 1.575,0.234 3.141,0.555 4.689,0.964 2.453,0.365 4.828,0.941 7.128,1.736 2.298,0.786 4.342,1.761 6.142,2.929 3.268,2.096 5.614,4.952 7.047,8.567 1.432,3.611 1.872,7.261 1.324,10.938 -0.6,4.026 -2.262,7.359 -4.979,9.999 -2.719,2.637 -5.935,4.394 -9.647,5.276 -1.508,0.49 -3.155,0.74 -4.943,0.742 -1.793,0.003 -3.664,-0.054 -5.614,-0.166 -0.356,-0.053 -0.749,-0.111 -1.183,-0.176 -0.439,-0.065 -0.919,-0.137 -1.447,-0.215 -0.876,-0.131 -1.795,-0.268 -2.757,-0.411 -0.966,-0.144 -1.885,-0.281 -2.758,-0.411 -0.855,-0.306 -1.714,-0.524 -2.587,-0.655 -0.88,-0.131 -1.753,-0.26 -2.63,-0.391 l -6.567,-0.978 5.87,-39.406 z m -51.2,71.915 32.469,1.56 c 0.725,-0.075 1.44,-0.056 2.142,0.049 0.698,0.104 1.4,0.208 2.102,0.313 0.524,0.078 1.09,0.162 1.707,0.254 0.613,0.092 1.182,0.177 1.707,0.255 7.529,1.121 15.067,1.883 22.619,2.294 7.544,0.406 15.083,-0.616 22.609,-3.075 8.657,-2.83 16.117,-7.849 22.385,-15.059 6.266,-7.218 10.077,-15.378 11.434,-24.482 1.122,-7.532 0.438,-14.973 -2.043,-22.325 C 42.696,87.724 38.125,81.761 31.467,77.189 42.645,75.453 51.713,70.761 58.672,63.118 65.625,55.467 69.929,46.132 71.572,35.097 72.981,25.64 72.213,16.664 69.271,8.169 66.33,-0.326 61.509,-7.939 54.813,-14.662 c -5.453,-5.47 -11.728,-9.581 -18.838,-12.337 -7.106,-2.763 -14.404,-4.877 -21.88,-6.347 -1.902,-0.466 -3.771,-0.831 -5.609,-1.106 -1.839,-0.273 -3.723,-0.554 -5.648,-0.84 l -48.598,-7.24 z" /></g></g></g><g
       id="g342"><g
         id="g344"><g
           id="g350"><g
             id="g352"><path
               id="path364"
               style="fill:url(#linearGradient362);stroke:none"
               d="m 738.852,707.36 c -7.552,-0.41 -15.089,-1.172 -22.619,-2.294 v 0 c -0.523,-0.078 -1.093,-0.164 -1.707,-0.254 v 0 c -0.616,-0.092 -1.182,-0.176 -1.705,-0.254 v 0 c -0.703,-0.105 -1.405,-0.209 -2.104,-0.313 v 0 c -0.702,-0.106 -1.416,-0.125 -2.141,-0.05 v 0 l -35.201,-5.243 28.917,-194.139 48.599,7.237 c 1.923,0.287 3.808,0.568 5.647,0.842 v 0 c 1.839,0.274 3.707,0.639 5.608,1.105 v 0 c 7.477,1.471 14.774,3.584 21.88,6.348 v 0 c 7.112,2.756 13.386,6.867 18.841,12.338 v 0 c 6.694,6.722 11.515,14.334 14.456,22.829 v 0 c 2.941,8.496 3.71,17.471 2.301,26.928 v 0 c -1.644,11.035 -5.947,20.37 -12.9,28.021 v 0 c -6.959,7.643 -16.028,12.334 -27.205,14.071 v 0 c 6.658,4.573 11.229,10.535 13.718,17.888 v 0 c 2.482,7.351 3.165,14.792 2.044,22.325 v 0 c -1.356,9.104 -5.168,17.262 -11.434,24.481 v 0 c -6.268,7.21 -13.728,12.23 -22.384,15.059 v 0 c -6.458,2.11 -12.925,3.162 -19.397,3.162 v 0 c -1.071,0 -2.142,-0.029 -3.214,-0.087 m -24.245,-38.252 6.567,0.978 c 0.877,0.13 1.75,0.261 2.629,0.392 v 0 c 0.873,0.13 1.733,0.349 2.588,0.655 v 0 c 0.873,0.129 1.792,0.266 2.757,0.41 v 0 c 0.963,0.143 1.881,0.281 2.758,0.411 v 0 c 0.527,0.079 1.009,0.151 1.446,0.215 v 0 c 0.436,0.065 0.828,0.124 1.184,0.177 v 0 c 1.95,0.112 3.821,0.168 5.613,0.165 v 0 c 1.789,-0.002 3.435,-0.252 4.944,-0.741 v 0 c 3.712,-0.883 6.927,-2.64 9.647,-5.277 v 0 c 2.718,-2.639 4.379,-5.972 4.979,-9.999 v 0 c 0.548,-3.676 0.108,-7.326 -1.324,-10.938 v 0 c -1.432,-3.615 -3.779,-6.47 -7.047,-8.567 v 0 c -1.8,-1.168 -3.844,-2.143 -6.142,-2.929 v 0 c -2.3,-0.794 -4.676,-1.37 -7.128,-1.735 v 0 c -1.549,-0.41 -3.115,-0.73 -4.69,-0.965 v 0 c -1.574,-0.234 -3.067,-0.456 -4.464,-0.664 v 0 c -0.178,-0.027 -0.396,-0.06 -0.659,-0.098 v 0 c -0.264,-0.04 -0.583,0 -0.959,0.122 v 0 l -6.83,-1.017 z m 11.112,-74.606 15.764,2.348 c 0.171,0.025 0.396,0.059 0.656,0.098 v 0 c 0.263,0.039 0.481,0.071 0.659,0.098 v 0 c 4.201,0.626 8.343,1.061 12.424,1.312 v 0 c 4.08,0.246 8.19,-0.303 12.331,-1.653 v 0 c 4.542,-1.655 8.138,-3.89 10.802,-6.717 v 0 c 2.658,-2.828 4.338,-6.603 5.044,-11.334 v 0 c 0.599,-4.03 0.389,-7.729 -0.628,-11.101 v 0 c -1.023,-3.375 -3.027,-6.453 -6.013,-9.221 v 0 c -4.258,-3.857 -8.792,-6.503 -13.587,-7.932 v 0 c -4.802,-1.432 -9.84,-2.452 -15.119,-3.056 v 0 l -14.976,-2.231 z" /></g></g></g></g><g
       id="g366"><g
         clip-path="url(#clipPath372)"
         id="g368"><g
           transform="translate(854.4717,676.5806)"
           id="g374"><path
             id="path376"
             style="fill:#8e8e8e;fill-opacity:1;fill-rule:nonzero;stroke:none"
             d="m 0,0 30.616,-6.031 -9.391,-184.995 -39.264,-0.945 z" /></g></g></g><g
       id="g378"><g
         id="g380"><g
           id="g386"><g
             id="g388"><path
               id="path400"
               style="fill:url(#linearGradient398);stroke:none"
               d="m 840.757,488.098 34.939,-2.543 13.715,188.483 -34.939,2.542 z" /></g></g></g></g><g
       id="g402"><g
         clip-path="url(#clipPath408)"
         id="g404"><g
           transform="translate(858.5693,731.7285)"
           id="g410"><path
             id="path412"
             style="fill:#8e8e8e;fill-opacity:1;fill-rule:nonzero;stroke:none"
             d="m 0,0 30.842,-2.921 1.656,-33.173 -37.283,2.163 z" /></g></g></g><g
       id="g414"><g
         id="g416"><g
           id="g422"><g
             id="g424"><path
               id="path436"
               style="fill:url(#linearGradient434);stroke:none"
               d="m 856.128,698.177 34.94,-2.543 2.441,33.552 -34.94,2.543 z" /></g></g></g></g><g
       id="g438"><g
         clip-path="url(#clipPath444)"
         id="g440"><g
           transform="translate(542.4932,341.2295)"
           id="g446"><path
             id="path448"
             style="fill:#000000;fill-opacity:1;fill-rule:nonzero;stroke:none"
             d="m 0,0 c 13.871,-8.422 24.771,-10.899 29.354,-7.309 5.698,3.593 -17.711,13.873 -29.849,24.03 -8.919,7.306 -14.615,18.331 -10.281,31.707 3.097,11.518 14.863,26.381 26.754,33.689 4.459,3.096 12.632,5.696 22.666,2.725 7.43,-2.602 15.482,-6.441 20.435,-11.271 6.565,-5.945 6.317,-12.385 6.317,-17.217 C 64.405,47.562 60.565,34.184 56.975,26.877 55.116,23.532 53.382,22.79 49.542,24.276 38.271,28.239 33.069,33.689 33.937,40.501 34.432,48.924 42.606,67.502 33.069,60.938 25.267,56.479 9.413,37.405 21.056,27.372 35.423,13.996 62.424,5.82 54.497,-8.671 51.152,-15.606 43.102,-25.514 23.285,-25.887 c -13.253,-0.371 -25.39,4.211 -38.767,16.598 -3.592,3.096 -5.45,5.325 -5.574,6.811 0,1.612 0.744,2.849 2.353,3.716 C -12.757,3.592 -4.955,3.345 0,0" /></g><g
           transform="translate(668.0781,318.4404)"
           id="g450"><path
             id="path452"
             style="fill:#000000;fill-opacity:1;fill-rule:nonzero;stroke:none"
             d="m 0,0 c 0,-4.46 -5.327,-2.603 -11.892,-0.991 -6.811,1.982 -11.146,4.336 -9.66,10.28 0.62,5.944 1.983,13.747 3.84,23.285 -6.935,-0.991 -13.5,-1.858 -20.436,-2.973 -2.602,-11.394 -4.087,-21.551 -5.451,-29.479 -0.619,-2.847 -1.486,-3.591 -5.821,-2.6 -4.087,1.116 -8.917,2.105 -12.014,3.962 -3.839,1.861 -5.573,3.841 -4.583,8.176 4.954,22.789 8.422,63.415 12.386,91.158 1.362,5.327 3.469,5.947 8.299,4.088 5.326,-1.486 11.889,-4.211 16.349,-7.184 5.078,-3.096 5.202,-4.83 4.212,-9.164 -2.603,-9.414 -5.45,-22.543 -8.794,-37.035 6.935,0.868 13.623,1.24 19.94,1.734 4.087,17.465 7.927,35.548 11.767,49.543 1.486,5.327 3.962,5.451 9.041,3.965 4.831,-1.363 10.157,-3.84 14.739,-6.814 4.334,-3.096 4.954,-4.707 3.592,-9.04 C 17.587,66.015 6.564,27.496 0,0" /></g><g
           transform="translate(716.7441,368.9727)"
           id="g454"><path
             id="path456"
             style="fill:#000000;fill-opacity:1;fill-rule:nonzero;stroke:none"
             d="m 0,0 c -4.583,-15.358 -4.458,-35.299 3.096,-37.652 6.813,-2.229 15.977,11.396 20.931,30.345 2.107,7.803 3.593,17.836 3.593,25.885 0,8.3 -1.486,14.74 -4.831,15.732 C 15.854,36.663 4.582,15.731 0,0 M 52.763,28.858 C 56.354,4.831 48.799,-30.221 29.479,-47.313 22.914,-52.391 15.978,-54.001 6.564,-53.01 c -6.317,0.619 -13.253,1.858 -18.702,4.706 -4.459,2.354 -9.165,6.07 -11.642,10.652 -12.139,23.285 -5.202,65.273 20.684,87.566 5.821,4.46 14.492,7.061 21.798,5.945 9.414,-1.485 18.454,-4.705 24.027,-9.165 6.319,-5.078 8.671,-10.527 10.034,-17.836" /></g><g
           transform="translate(839.4785,397.709)"
           id="g458"><path
             id="path460"
             style="fill:#000000;fill-opacity:1;fill-rule:nonzero;stroke:none"
             d="m 0,0 c -0.991,4.087 -13.13,4.211 -25.392,-1.115 -2.6,-8.918 -4.954,-18.454 -7.431,-28.86 C -9.414,-22.79 2.6,-7.061 0,0 m -43.226,-79.765 c -0.867,-2.601 -1.735,-3.468 -6.069,-2.601 -8.298,2.23 -17.589,3.716 -15.606,12.262 4.459,11.767 5.821,80.011 10.528,82.365 19.196,10.033 50.781,22.913 65.272,8.917 5.574,-6.316 10.652,-12.88 13.252,-23.284 2.354,-10.281 -2.848,-17.588 -9.785,-24.524 -11.27,-11.271 -32.449,-21.305 -52.514,-26.629 -1.982,-9.414 -3.715,-18.083 -5.078,-26.506" /></g><g
           transform="translate(582.0537,480.1777)"
           id="g462"><path
             id="path464"
             style="fill:#4dbc00;fill-opacity:1;fill-rule:nonzero;stroke:none"
             d="M 0,0 C -0.809,0.206 -1.583,0.413 -2.288,0.637 Z" /></g><g
           transform="translate(582.0537,480.1777)"
           id="g466"><path
             id="path468"
             style="fill:#4dbc00;fill-opacity:1;fill-rule:nonzero;stroke:none"
             d="M 0,0 C -0.809,0.206 -1.583,0.413 -2.288,0.637 Z" /></g><g
           transform="translate(582.8613,479.9717)"
           id="g470"><path
             id="path472"
             style="fill:#4dbc00;fill-opacity:1;fill-rule:nonzero;stroke:none"
             d="m 0,0 c -0.36,0.086 -0.722,0.172 -1.066,0.258 0.017,0 0.051,0 0.069,0.017 z" /></g><g
           transform="translate(582.8613,479.9717)"
           id="g474"><path
             id="path476"
             style="fill:#4dbc00;fill-opacity:1;fill-rule:nonzero;stroke:none"
             d="m 0,0 c -0.36,0.086 -0.722,0.172 -1.066,0.258 0.017,0 0.051,0 0.069,0.017 z" /></g></g></g></g></svg>